<?xml version="1.0" encoding="utf-8" standalone="no"?>
<!DOCTYPE svg PUBLIC "-//W3C//DTD SVG 1.1//EN"
  "http://www.w3.org/Graphics/SVG/1.1/DTD/svg11.dtd">
<svg xmlns:xlink="http://www.w3.org/1999/xlink" width="792pt" height="565.92pt" viewBox="0 0 792 565.92" xmlns="http://www.w3.org/2000/svg" version="1.1">
 <metadata>
  <rdf:RDF xmlns:dc="http://purl.org/dc/elements/1.1/" xmlns:cc="http://creativecommons.org/ns#" xmlns:rdf="http://www.w3.org/1999/02/22-rdf-syntax-ns#">
   <cc:Work>
    <dc:type rdf:resource="http://purl.org/dc/dcmitype/StillImage"/>
    <dc:date>2026-08-28T11:13:08.795275</dc:date>
    <dc:format>image/svg+xml</dc:format>
    <dc:creator>
     <cc:Agent>
      <dc:title>Matplotlib v3.6.3, https://matplotlib.org/</dc:title>
     </cc:Agent>
    </dc:creator>
   </cc:Work>
  </rdf:RDF>
 </metadata>
 <defs>
  <style type="text/css">*{stroke-linejoin: round; stroke-linecap: butt}</style>
 </defs>
 <g id="figure_1">
  <g id="patch_1">
   <path d="M 0 565.92 
L 792 565.92 
L 792 0 
L 0 0 
z
" style="fill: #ffffff"/>
  </g>
  <g id="axes_1">
   <g id="patch_2">
    <path d="M 150.29 527.46 
L 767.78 527.46 
L 767.78 34.88 
L 150.29 34.88 
z
" style="fill: #ffffff"/>
   </g>
   <g id="matplotlib.axis_1">
    <g id="xtick_1">
     <g id="line2d_1">
      <path d="M 211.601365 527.46 
L 211.601365 34.88 
" clip-path="url(#p9eaf97279f)" style="fill: none; stroke: #e6e6e3; stroke-width: 0.8; stroke-linecap: square"/>
     </g>
     <g id="line2d_2"/>
     <g id="text_1">
      <!-- −150 -->
      <g style="fill: #6b6b68" transform="translate(197.867771 538.558437) scale(0.1 -0.1)">
       <defs>
        <path id="DejaVuSans-2212" d="M 678 2272 
L 4684 2272 
L 4684 1741 
L 678 1741 
L 678 2272 
z
" transform="scale(0.015625)"/>
        <path id="DejaVuSans-31" d="M 794 531 
L 1825 531 
L 1825 4091 
L 703 3866 
L 703 4441 
L 1819 4666 
L 2450 4666 
L 2450 531 
L 3481 531 
L 3481 0 
L 794 0 
L 794 531 
z
" transform="scale(0.015625)"/>
        <path id="DejaVuSans-35" d="M 691 4666 
L 3169 4666 
L 3169 4134 
L 1269 4134 
L 1269 2991 
Q 1406 3038 1543 3061 
Q 1681 3084 1819 3084 
Q 2600 3084 3056 2656 
Q 3513 2228 3513 1497 
Q 3513 744 3044 326 
Q 2575 -91 1722 -91 
Q 1428 -91 1123 -41 
Q 819 9 494 109 
L 494 744 
Q 775 591 1075 516 
Q 1375 441 1709 441 
Q 2250 441 2565 725 
Q 2881 1009 2881 1497 
Q 2881 1984 2565 2268 
Q 2250 2553 1709 2553 
Q 1456 2553 1204 2497 
Q 953 2441 691 2322 
L 691 4666 
z
" transform="scale(0.015625)"/>
        <path id="DejaVuSans-30" d="M 2034 4250 
Q 1547 4250 1301 3770 
Q 1056 3291 1056 2328 
Q 1056 1369 1301 889 
Q 1547 409 2034 409 
Q 2525 409 2770 889 
Q 3016 1369 3016 2328 
Q 3016 3291 2770 3770 
Q 2525 4250 2034 4250 
z
M 2034 4750 
Q 2819 4750 3233 4129 
Q 3647 3509 3647 2328 
Q 3647 1150 3233 529 
Q 2819 -91 2034 -91 
Q 1250 -91 836 529 
Q 422 1150 422 2328 
Q 422 3509 836 4129 
Q 1250 4750 2034 4750 
z
" transform="scale(0.015625)"/>
       </defs>
       <use xlink:href="#DejaVuSans-2212"/>
       <use xlink:href="#DejaVuSans-31" x="83.789062"/>
       <use xlink:href="#DejaVuSans-35" x="147.412109"/>
       <use xlink:href="#DejaVuSans-30" x="211.035156"/>
      </g>
     </g>
    </g>
    <g id="xtick_2">
     <g id="line2d_3">
      <path d="M 317.275861 527.46 
L 317.275861 34.88 
" clip-path="url(#p9eaf97279f)" style="fill: none; stroke: #e6e6e3; stroke-width: 0.8; stroke-linecap: square"/>
     </g>
     <g id="line2d_4"/>
     <g id="text_2">
      <!-- −100 -->
      <g style="fill: #6b6b68" transform="translate(303.542267 538.558437) scale(0.1 -0.1)">
       <use xlink:href="#DejaVuSans-2212"/>
       <use xlink:href="#DejaVuSans-31" x="83.789062"/>
       <use xlink:href="#DejaVuSans-30" x="147.412109"/>
       <use xlink:href="#DejaVuSans-30" x="211.035156"/>
      </g>
     </g>
    </g>
    <g id="xtick_3">
     <g id="line2d_5">
      <path d="M 422.950356 527.46 
L 422.950356 34.88 
" clip-path="url(#p9eaf97279f)" style="fill: none; stroke: #e6e6e3; stroke-width: 0.8; stroke-linecap: square"/>
     </g>
     <g id="line2d_6"/>
     <g id="text_3">
      <!-- −50 -->
      <g style="fill: #6b6b68" transform="translate(412.398013 538.558437) scale(0.1 -0.1)">
       <use xlink:href="#DejaVuSans-2212"/>
       <use xlink:href="#DejaVuSans-35" x="83.789062"/>
       <use xlink:href="#DejaVuSans-30" x="147.412109"/>
      </g>
     </g>
    </g>
    <g id="xtick_4">
     <g id="line2d_7">
      <path d="M 528.624852 527.46 
L 528.624852 34.88 
" clip-path="url(#p9eaf97279f)" style="fill: none; stroke: #e6e6e3; stroke-width: 0.8; stroke-linecap: square"/>
     </g>
     <g id="line2d_8"/>
     <g id="text_4">
      <!-- 0 -->
      <g style="fill: #6b6b68" transform="translate(525.443602 538.558437) scale(0.1 -0.1)">
       <use xlink:href="#DejaVuSans-30"/>
      </g>
     </g>
    </g>
    <g id="xtick_5">
     <g id="line2d_9">
      <path d="M 634.299348 527.46 
L 634.299348 34.88 
" clip-path="url(#p9eaf97279f)" style="fill: none; stroke: #e6e6e3; stroke-width: 0.8; stroke-linecap: square"/>
     </g>
     <g id="line2d_10"/>
     <g id="text_5">
      <!-- 50 -->
      <g style="fill: #6b6b68" transform="translate(627.936848 538.558437) scale(0.1 -0.1)">
       <use xlink:href="#DejaVuSans-35"/>
       <use xlink:href="#DejaVuSans-30" x="63.623047"/>
      </g>
     </g>
    </g>
    <g id="xtick_6">
     <g id="line2d_11">
      <path d="M 739.973843 527.46 
L 739.973843 34.88 
" clip-path="url(#p9eaf97279f)" style="fill: none; stroke: #e6e6e3; stroke-width: 0.8; stroke-linecap: square"/>
     </g>
     <g id="line2d_12"/>
     <g id="text_6">
      <!-- 100 -->
      <g style="fill: #6b6b68" transform="translate(730.430093 538.558437) scale(0.1 -0.1)">
       <use xlink:href="#DejaVuSans-31"/>
       <use xlink:href="#DejaVuSans-30" x="63.623047"/>
       <use xlink:href="#DejaVuSans-30" x="127.246094"/>
      </g>
     </g>
    </g>
    <g id="text_7">
     <!-- % reduction in reg2reg TNS at a period no config can meet   —   right of the line is better -->
     <g style="fill: #1a1a19" transform="translate(247.090742 551.856641) scale(0.095 -0.095)">
      <defs>
       <path id="DejaVuSans-25" d="M 4653 2053 
Q 4381 2053 4226 1822 
Q 4072 1591 4072 1178 
Q 4072 772 4226 539 
Q 4381 306 4653 306 
Q 4919 306 5073 539 
Q 5228 772 5228 1178 
Q 5228 1588 5073 1820 
Q 4919 2053 4653 2053 
z
M 4653 2450 
Q 5147 2450 5437 2106 
Q 5728 1763 5728 1178 
Q 5728 594 5436 251 
Q 5144 -91 4653 -91 
Q 4153 -91 3862 251 
Q 3572 594 3572 1178 
Q 3572 1766 3864 2108 
Q 4156 2450 4653 2450 
z
M 1428 4353 
Q 1159 4353 1004 4120 
Q 850 3888 850 3481 
Q 850 3069 1003 2837 
Q 1156 2606 1428 2606 
Q 1700 2606 1854 2837 
Q 2009 3069 2009 3481 
Q 2009 3884 1853 4118 
Q 1697 4353 1428 4353 
z
M 4250 4750 
L 4750 4750 
L 1831 -91 
L 1331 -91 
L 4250 4750 
z
M 1428 4750 
Q 1922 4750 2215 4408 
Q 2509 4066 2509 3481 
Q 2509 2891 2217 2550 
Q 1925 2209 1428 2209 
Q 931 2209 642 2551 
Q 353 2894 353 3481 
Q 353 4063 643 4406 
Q 934 4750 1428 4750 
z
" transform="scale(0.015625)"/>
       <path id="DejaVuSans-20" transform="scale(0.015625)"/>
       <path id="DejaVuSans-72" d="M 2631 2963 
Q 2534 3019 2420 3045 
Q 2306 3072 2169 3072 
Q 1681 3072 1420 2755 
Q 1159 2438 1159 1844 
L 1159 0 
L 581 0 
L 581 3500 
L 1159 3500 
L 1159 2956 
Q 1341 3275 1631 3429 
Q 1922 3584 2338 3584 
Q 2397 3584 2469 3576 
Q 2541 3569 2628 3553 
L 2631 2963 
z
" transform="scale(0.015625)"/>
       <path id="DejaVuSans-65" d="M 3597 1894 
L 3597 1613 
L 953 1613 
Q 991 1019 1311 708 
Q 1631 397 2203 397 
Q 2534 397 2845 478 
Q 3156 559 3463 722 
L 3463 178 
Q 3153 47 2828 -22 
Q 2503 -91 2169 -91 
Q 1331 -91 842 396 
Q 353 884 353 1716 
Q 353 2575 817 3079 
Q 1281 3584 2069 3584 
Q 2775 3584 3186 3129 
Q 3597 2675 3597 1894 
z
M 3022 2063 
Q 3016 2534 2758 2815 
Q 2500 3097 2075 3097 
Q 1594 3097 1305 2825 
Q 1016 2553 972 2059 
L 3022 2063 
z
" transform="scale(0.015625)"/>
       <path id="DejaVuSans-64" d="M 2906 2969 
L 2906 4863 
L 3481 4863 
L 3481 0 
L 2906 0 
L 2906 525 
Q 2725 213 2448 61 
Q 2172 -91 1784 -91 
Q 1150 -91 751 415 
Q 353 922 353 1747 
Q 353 2572 751 3078 
Q 1150 3584 1784 3584 
Q 2172 3584 2448 3432 
Q 2725 3281 2906 2969 
z
M 947 1747 
Q 947 1113 1208 752 
Q 1469 391 1925 391 
Q 2381 391 2643 752 
Q 2906 1113 2906 1747 
Q 2906 2381 2643 2742 
Q 2381 3103 1925 3103 
Q 1469 3103 1208 2742 
Q 947 2381 947 1747 
z
" transform="scale(0.015625)"/>
       <path id="DejaVuSans-75" d="M 544 1381 
L 544 3500 
L 1119 3500 
L 1119 1403 
Q 1119 906 1312 657 
Q 1506 409 1894 409 
Q 2359 409 2629 706 
Q 2900 1003 2900 1516 
L 2900 3500 
L 3475 3500 
L 3475 0 
L 2900 0 
L 2900 538 
Q 2691 219 2414 64 
Q 2138 -91 1772 -91 
Q 1169 -91 856 284 
Q 544 659 544 1381 
z
M 1991 3584 
L 1991 3584 
z
" transform="scale(0.015625)"/>
       <path id="DejaVuSans-63" d="M 3122 3366 
L 3122 2828 
Q 2878 2963 2633 3030 
Q 2388 3097 2138 3097 
Q 1578 3097 1268 2742 
Q 959 2388 959 1747 
Q 959 1106 1268 751 
Q 1578 397 2138 397 
Q 2388 397 2633 464 
Q 2878 531 3122 666 
L 3122 134 
Q 2881 22 2623 -34 
Q 2366 -91 2075 -91 
Q 1284 -91 818 406 
Q 353 903 353 1747 
Q 353 2603 823 3093 
Q 1294 3584 2113 3584 
Q 2378 3584 2631 3529 
Q 2884 3475 3122 3366 
z
" transform="scale(0.015625)"/>
       <path id="DejaVuSans-74" d="M 1172 4494 
L 1172 3500 
L 2356 3500 
L 2356 3053 
L 1172 3053 
L 1172 1153 
Q 1172 725 1289 603 
Q 1406 481 1766 481 
L 2356 481 
L 2356 0 
L 1766 0 
Q 1100 0 847 248 
Q 594 497 594 1153 
L 594 3053 
L 172 3053 
L 172 3500 
L 594 3500 
L 594 4494 
L 1172 4494 
z
" transform="scale(0.015625)"/>
       <path id="DejaVuSans-69" d="M 603 3500 
L 1178 3500 
L 1178 0 
L 603 0 
L 603 3500 
z
M 603 4863 
L 1178 4863 
L 1178 4134 
L 603 4134 
L 603 4863 
z
" transform="scale(0.015625)"/>
       <path id="DejaVuSans-6f" d="M 1959 3097 
Q 1497 3097 1228 2736 
Q 959 2375 959 1747 
Q 959 1119 1226 758 
Q 1494 397 1959 397 
Q 2419 397 2687 759 
Q 2956 1122 2956 1747 
Q 2956 2369 2687 2733 
Q 2419 3097 1959 3097 
z
M 1959 3584 
Q 2709 3584 3137 3096 
Q 3566 2609 3566 1747 
Q 3566 888 3137 398 
Q 2709 -91 1959 -91 
Q 1206 -91 779 398 
Q 353 888 353 1747 
Q 353 2609 779 3096 
Q 1206 3584 1959 3584 
z
" transform="scale(0.015625)"/>
       <path id="DejaVuSans-6e" d="M 3513 2113 
L 3513 0 
L 2938 0 
L 2938 2094 
Q 2938 2591 2744 2837 
Q 2550 3084 2163 3084 
Q 1697 3084 1428 2787 
Q 1159 2491 1159 1978 
L 1159 0 
L 581 0 
L 581 3500 
L 1159 3500 
L 1159 2956 
Q 1366 3272 1645 3428 
Q 1925 3584 2291 3584 
Q 2894 3584 3203 3211 
Q 3513 2838 3513 2113 
z
" transform="scale(0.015625)"/>
       <path id="DejaVuSans-67" d="M 2906 1791 
Q 2906 2416 2648 2759 
Q 2391 3103 1925 3103 
Q 1463 3103 1205 2759 
Q 947 2416 947 1791 
Q 947 1169 1205 825 
Q 1463 481 1925 481 
Q 2391 481 2648 825 
Q 2906 1169 2906 1791 
z
M 3481 434 
Q 3481 -459 3084 -895 
Q 2688 -1331 1869 -1331 
Q 1566 -1331 1297 -1286 
Q 1028 -1241 775 -1147 
L 775 -588 
Q 1028 -725 1275 -790 
Q 1522 -856 1778 -856 
Q 2344 -856 2625 -561 
Q 2906 -266 2906 331 
L 2906 616 
Q 2728 306 2450 153 
Q 2172 0 1784 0 
Q 1141 0 747 490 
Q 353 981 353 1791 
Q 353 2603 747 3093 
Q 1141 3584 1784 3584 
Q 2172 3584 2450 3431 
Q 2728 3278 2906 2969 
L 2906 3500 
L 3481 3500 
L 3481 434 
z
" transform="scale(0.015625)"/>
       <path id="DejaVuSans-32" d="M 1228 531 
L 3431 531 
L 3431 0 
L 469 0 
L 469 531 
Q 828 903 1448 1529 
Q 2069 2156 2228 2338 
Q 2531 2678 2651 2914 
Q 2772 3150 2772 3378 
Q 2772 3750 2511 3984 
Q 2250 4219 1831 4219 
Q 1534 4219 1204 4116 
Q 875 4013 500 3803 
L 500 4441 
Q 881 4594 1212 4672 
Q 1544 4750 1819 4750 
Q 2544 4750 2975 4387 
Q 3406 4025 3406 3419 
Q 3406 3131 3298 2873 
Q 3191 2616 2906 2266 
Q 2828 2175 2409 1742 
Q 1991 1309 1228 531 
z
" transform="scale(0.015625)"/>
       <path id="DejaVuSans-54" d="M -19 4666 
L 3928 4666 
L 3928 4134 
L 2272 4134 
L 2272 0 
L 1638 0 
L 1638 4134 
L -19 4134 
L -19 4666 
z
" transform="scale(0.015625)"/>
       <path id="DejaVuSans-4e" d="M 628 4666 
L 1478 4666 
L 3547 763 
L 3547 4666 
L 4159 4666 
L 4159 0 
L 3309 0 
L 1241 3903 
L 1241 0 
L 628 0 
L 628 4666 
z
" transform="scale(0.015625)"/>
       <path id="DejaVuSans-53" d="M 3425 4513 
L 3425 3897 
Q 3066 4069 2747 4153 
Q 2428 4238 2131 4238 
Q 1616 4238 1336 4038 
Q 1056 3838 1056 3469 
Q 1056 3159 1242 3001 
Q 1428 2844 1947 2747 
L 2328 2669 
Q 3034 2534 3370 2195 
Q 3706 1856 3706 1288 
Q 3706 609 3251 259 
Q 2797 -91 1919 -91 
Q 1588 -91 1214 -16 
Q 841 59 441 206 
L 441 856 
Q 825 641 1194 531 
Q 1563 422 1919 422 
Q 2459 422 2753 634 
Q 3047 847 3047 1241 
Q 3047 1584 2836 1778 
Q 2625 1972 2144 2069 
L 1759 2144 
Q 1053 2284 737 2584 
Q 422 2884 422 3419 
Q 422 4038 858 4394 
Q 1294 4750 2059 4750 
Q 2388 4750 2728 4690 
Q 3069 4631 3425 4513 
z
" transform="scale(0.015625)"/>
       <path id="DejaVuSans-61" d="M 2194 1759 
Q 1497 1759 1228 1600 
Q 959 1441 959 1056 
Q 959 750 1161 570 
Q 1363 391 1709 391 
Q 2188 391 2477 730 
Q 2766 1069 2766 1631 
L 2766 1759 
L 2194 1759 
z
M 3341 1997 
L 3341 0 
L 2766 0 
L 2766 531 
Q 2569 213 2275 61 
Q 1981 -91 1556 -91 
Q 1019 -91 701 211 
Q 384 513 384 1019 
Q 384 1609 779 1909 
Q 1175 2209 1959 2209 
L 2766 2209 
L 2766 2266 
Q 2766 2663 2505 2880 
Q 2244 3097 1772 3097 
Q 1472 3097 1187 3025 
Q 903 2953 641 2809 
L 641 3341 
Q 956 3463 1253 3523 
Q 1550 3584 1831 3584 
Q 2591 3584 2966 3190 
Q 3341 2797 3341 1997 
z
" transform="scale(0.015625)"/>
       <path id="DejaVuSans-70" d="M 1159 525 
L 1159 -1331 
L 581 -1331 
L 581 3500 
L 1159 3500 
L 1159 2969 
Q 1341 3281 1617 3432 
Q 1894 3584 2278 3584 
Q 2916 3584 3314 3078 
Q 3713 2572 3713 1747 
Q 3713 922 3314 415 
Q 2916 -91 2278 -91 
Q 1894 -91 1617 61 
Q 1341 213 1159 525 
z
M 3116 1747 
Q 3116 2381 2855 2742 
Q 2594 3103 2138 3103 
Q 1681 3103 1420 2742 
Q 1159 2381 1159 1747 
Q 1159 1113 1420 752 
Q 1681 391 2138 391 
Q 2594 391 2855 752 
Q 3116 1113 3116 1747 
z
" transform="scale(0.015625)"/>
       <path id="DejaVuSans-66" d="M 2375 4863 
L 2375 4384 
L 1825 4384 
Q 1516 4384 1395 4259 
Q 1275 4134 1275 3809 
L 1275 3500 
L 2222 3500 
L 2222 3053 
L 1275 3053 
L 1275 0 
L 697 0 
L 697 3053 
L 147 3053 
L 147 3500 
L 697 3500 
L 697 3744 
Q 697 4328 969 4595 
Q 1241 4863 1831 4863 
L 2375 4863 
z
" transform="scale(0.015625)"/>
       <path id="DejaVuSans-6d" d="M 3328 2828 
Q 3544 3216 3844 3400 
Q 4144 3584 4550 3584 
Q 5097 3584 5394 3201 
Q 5691 2819 5691 2113 
L 5691 0 
L 5113 0 
L 5113 2094 
Q 5113 2597 4934 2840 
Q 4756 3084 4391 3084 
Q 3944 3084 3684 2787 
Q 3425 2491 3425 1978 
L 3425 0 
L 2847 0 
L 2847 2094 
Q 2847 2600 2669 2842 
Q 2491 3084 2119 3084 
Q 1678 3084 1418 2786 
Q 1159 2488 1159 1978 
L 1159 0 
L 581 0 
L 581 3500 
L 1159 3500 
L 1159 2956 
Q 1356 3278 1631 3431 
Q 1906 3584 2284 3584 
Q 2666 3584 2933 3390 
Q 3200 3197 3328 2828 
z
" transform="scale(0.015625)"/>
       <path id="DejaVuSans-2014" d="M 313 1978 
L 6088 1978 
L 6088 1528 
L 313 1528 
L 313 1978 
z
" transform="scale(0.015625)"/>
       <path id="DejaVuSans-68" d="M 3513 2113 
L 3513 0 
L 2938 0 
L 2938 2094 
Q 2938 2591 2744 2837 
Q 2550 3084 2163 3084 
Q 1697 3084 1428 2787 
Q 1159 2491 1159 1978 
L 1159 0 
L 581 0 
L 581 4863 
L 1159 4863 
L 1159 2956 
Q 1366 3272 1645 3428 
Q 1925 3584 2291 3584 
Q 2894 3584 3203 3211 
Q 3513 2838 3513 2113 
z
" transform="scale(0.015625)"/>
       <path id="DejaVuSans-6c" d="M 603 4863 
L 1178 4863 
L 1178 0 
L 603 0 
L 603 4863 
z
" transform="scale(0.015625)"/>
       <path id="DejaVuSans-73" d="M 2834 3397 
L 2834 2853 
Q 2591 2978 2328 3040 
Q 2066 3103 1784 3103 
Q 1356 3103 1142 2972 
Q 928 2841 928 2578 
Q 928 2378 1081 2264 
Q 1234 2150 1697 2047 
L 1894 2003 
Q 2506 1872 2764 1633 
Q 3022 1394 3022 966 
Q 3022 478 2636 193 
Q 2250 -91 1575 -91 
Q 1294 -91 989 -36 
Q 684 19 347 128 
L 347 722 
Q 666 556 975 473 
Q 1284 391 1588 391 
Q 1994 391 2212 530 
Q 2431 669 2431 922 
Q 2431 1156 2273 1281 
Q 2116 1406 1581 1522 
L 1381 1569 
Q 847 1681 609 1914 
Q 372 2147 372 2553 
Q 372 3047 722 3315 
Q 1072 3584 1716 3584 
Q 2034 3584 2315 3537 
Q 2597 3491 2834 3397 
z
" transform="scale(0.015625)"/>
       <path id="DejaVuSans-62" d="M 3116 1747 
Q 3116 2381 2855 2742 
Q 2594 3103 2138 3103 
Q 1681 3103 1420 2742 
Q 1159 2381 1159 1747 
Q 1159 1113 1420 752 
Q 1681 391 2138 391 
Q 2594 391 2855 752 
Q 3116 1113 3116 1747 
z
M 1159 2969 
Q 1341 3281 1617 3432 
Q 1894 3584 2278 3584 
Q 2916 3584 3314 3078 
Q 3713 2572 3713 1747 
Q 3713 922 3314 415 
Q 2916 -91 2278 -91 
Q 1894 -91 1617 61 
Q 1341 213 1159 525 
L 1159 0 
L 581 0 
L 581 4863 
L 1159 4863 
L 1159 2969 
z
" transform="scale(0.015625)"/>
      </defs>
      <use xlink:href="#DejaVuSans-25"/>
      <use xlink:href="#DejaVuSans-20" x="95.019531"/>
      <use xlink:href="#DejaVuSans-72" x="126.806641"/>
      <use xlink:href="#DejaVuSans-65" x="165.669922"/>
      <use xlink:href="#DejaVuSans-64" x="227.193359"/>
      <use xlink:href="#DejaVuSans-75" x="290.669922"/>
      <use xlink:href="#DejaVuSans-63" x="354.048828"/>
      <use xlink:href="#DejaVuSans-74" x="409.029297"/>
      <use xlink:href="#DejaVuSans-69" x="448.238281"/>
      <use xlink:href="#DejaVuSans-6f" x="476.021484"/>
      <use xlink:href="#DejaVuSans-6e" x="537.203125"/>
      <use xlink:href="#DejaVuSans-20" x="600.582031"/>
      <use xlink:href="#DejaVuSans-69" x="632.369141"/>
      <use xlink:href="#DejaVuSans-6e" x="660.152344"/>
      <use xlink:href="#DejaVuSans-20" x="723.53125"/>
      <use xlink:href="#DejaVuSans-72" x="755.318359"/>
      <use xlink:href="#DejaVuSans-65" x="794.181641"/>
      <use xlink:href="#DejaVuSans-67" x="855.705078"/>
      <use xlink:href="#DejaVuSans-32" x="919.181641"/>
      <use xlink:href="#DejaVuSans-72" x="982.804688"/>
      <use xlink:href="#DejaVuSans-65" x="1021.667969"/>
      <use xlink:href="#DejaVuSans-67" x="1083.191406"/>
      <use xlink:href="#DejaVuSans-20" x="1146.667969"/>
      <use xlink:href="#DejaVuSans-54" x="1178.455078"/>
      <use xlink:href="#DejaVuSans-4e" x="1239.539062"/>
      <use xlink:href="#DejaVuSans-53" x="1314.34375"/>
      <use xlink:href="#DejaVuSans-20" x="1377.820312"/>
      <use xlink:href="#DejaVuSans-61" x="1409.607422"/>
      <use xlink:href="#DejaVuSans-74" x="1470.886719"/>
      <use xlink:href="#DejaVuSans-20" x="1510.095703"/>
      <use xlink:href="#DejaVuSans-61" x="1541.882812"/>
      <use xlink:href="#DejaVuSans-20" x="1603.162109"/>
      <use xlink:href="#DejaVuSans-70" x="1634.949219"/>
      <use xlink:href="#DejaVuSans-65" x="1698.425781"/>
      <use xlink:href="#DejaVuSans-72" x="1759.949219"/>
      <use xlink:href="#DejaVuSans-69" x="1801.0625"/>
      <use xlink:href="#DejaVuSans-6f" x="1828.845703"/>
      <use xlink:href="#DejaVuSans-64" x="1890.027344"/>
      <use xlink:href="#DejaVuSans-20" x="1953.503906"/>
      <use xlink:href="#DejaVuSans-6e" x="1985.291016"/>
      <use xlink:href="#DejaVuSans-6f" x="2048.669922"/>
      <use xlink:href="#DejaVuSans-20" x="2109.851562"/>
      <use xlink:href="#DejaVuSans-63" x="2141.638672"/>
      <use xlink:href="#DejaVuSans-6f" x="2196.619141"/>
      <use xlink:href="#DejaVuSans-6e" x="2257.800781"/>
      <use xlink:href="#DejaVuSans-66" x="2321.179688"/>
      <use xlink:href="#DejaVuSans-69" x="2356.384766"/>
      <use xlink:href="#DejaVuSans-67" x="2384.167969"/>
      <use xlink:href="#DejaVuSans-20" x="2447.644531"/>
      <use xlink:href="#DejaVuSans-63" x="2479.431641"/>
      <use xlink:href="#DejaVuSans-61" x="2534.412109"/>
      <use xlink:href="#DejaVuSans-6e" x="2595.691406"/>
      <use xlink:href="#DejaVuSans-20" x="2659.070312"/>
      <use xlink:href="#DejaVuSans-6d" x="2690.857422"/>
      <use xlink:href="#DejaVuSans-65" x="2788.269531"/>
      <use xlink:href="#DejaVuSans-65" x="2849.792969"/>
      <use xlink:href="#DejaVuSans-74" x="2911.316406"/>
      <use xlink:href="#DejaVuSans-20" x="2950.525391"/>
      <use xlink:href="#DejaVuSans-20" x="2982.3125"/>
      <use xlink:href="#DejaVuSans-20" x="3014.099609"/>
      <use xlink:href="#DejaVuSans-2014" x="3045.886719"/>
      <use xlink:href="#DejaVuSans-20" x="3145.886719"/>
      <use xlink:href="#DejaVuSans-20" x="3177.673828"/>
      <use xlink:href="#DejaVuSans-20" x="3209.460938"/>
      <use xlink:href="#DejaVuSans-72" x="3241.248047"/>
      <use xlink:href="#DejaVuSans-69" x="3282.361328"/>
      <use xlink:href="#DejaVuSans-67" x="3310.144531"/>
      <use xlink:href="#DejaVuSans-68" x="3373.621094"/>
      <use xlink:href="#DejaVuSans-74" x="3437"/>
      <use xlink:href="#DejaVuSans-20" x="3476.208984"/>
      <use xlink:href="#DejaVuSans-6f" x="3507.996094"/>
      <use xlink:href="#DejaVuSans-66" x="3569.177734"/>
      <use xlink:href="#DejaVuSans-20" x="3604.382812"/>
      <use xlink:href="#DejaVuSans-74" x="3636.169922"/>
      <use xlink:href="#DejaVuSans-68" x="3675.378906"/>
      <use xlink:href="#DejaVuSans-65" x="3738.757812"/>
      <use xlink:href="#DejaVuSans-20" x="3800.28125"/>
      <use xlink:href="#DejaVuSans-6c" x="3832.068359"/>
      <use xlink:href="#DejaVuSans-69" x="3859.851562"/>
      <use xlink:href="#DejaVuSans-6e" x="3887.634766"/>
      <use xlink:href="#DejaVuSans-65" x="3951.013672"/>
      <use xlink:href="#DejaVuSans-20" x="4012.537109"/>
      <use xlink:href="#DejaVuSans-69" x="4044.324219"/>
      <use xlink:href="#DejaVuSans-73" x="4072.107422"/>
      <use xlink:href="#DejaVuSans-20" x="4124.207031"/>
      <use xlink:href="#DejaVuSans-62" x="4155.994141"/>
      <use xlink:href="#DejaVuSans-65" x="4219.470703"/>
      <use xlink:href="#DejaVuSans-74" x="4280.994141"/>
      <use xlink:href="#DejaVuSans-74" x="4320.203125"/>
      <use xlink:href="#DejaVuSans-65" x="4359.412109"/>
      <use xlink:href="#DejaVuSans-72" x="4420.935547"/>
     </g>
    </g>
   </g>
   <g id="matplotlib.axis_2">
    <g id="ytick_1">
     <g id="line2d_13"/>
     <g id="text_8">
      <!-- r32 backward reset preimage -->
      <g style="fill: #6b6b68" transform="translate(13.964062 502.673712) scale(0.09 -0.09)">
       <defs>
        <path id="DejaVuSans-33" d="M 2597 2516 
Q 3050 2419 3304 2112 
Q 3559 1806 3559 1356 
Q 3559 666 3084 287 
Q 2609 -91 1734 -91 
Q 1441 -91 1130 -33 
Q 819 25 488 141 
L 488 750 
Q 750 597 1062 519 
Q 1375 441 1716 441 
Q 2309 441 2620 675 
Q 2931 909 2931 1356 
Q 2931 1769 2642 2001 
Q 2353 2234 1838 2234 
L 1294 2234 
L 1294 2753 
L 1863 2753 
Q 2328 2753 2575 2939 
Q 2822 3125 2822 3475 
Q 2822 3834 2567 4026 
Q 2313 4219 1838 4219 
Q 1578 4219 1281 4162 
Q 984 4106 628 3988 
L 628 4550 
Q 988 4650 1302 4700 
Q 1616 4750 1894 4750 
Q 2613 4750 3031 4423 
Q 3450 4097 3450 3541 
Q 3450 3153 3228 2886 
Q 3006 2619 2597 2516 
z
" transform="scale(0.015625)"/>
        <path id="DejaVuSans-6b" d="M 581 4863 
L 1159 4863 
L 1159 1991 
L 2875 3500 
L 3609 3500 
L 1753 1863 
L 3688 0 
L 2938 0 
L 1159 1709 
L 1159 0 
L 581 0 
L 581 4863 
z
" transform="scale(0.015625)"/>
        <path id="DejaVuSans-77" d="M 269 3500 
L 844 3500 
L 1563 769 
L 2278 3500 
L 2956 3500 
L 3675 769 
L 4391 3500 
L 4966 3500 
L 4050 0 
L 3372 0 
L 2619 2869 
L 1863 0 
L 1184 0 
L 269 3500 
z
" transform="scale(0.015625)"/>
       </defs>
       <use xlink:href="#DejaVuSans-72"/>
       <use xlink:href="#DejaVuSans-33" x="41.113281"/>
       <use xlink:href="#DejaVuSans-32" x="104.736328"/>
       <use xlink:href="#DejaVuSans-20" x="168.359375"/>
       <use xlink:href="#DejaVuSans-62" x="200.146484"/>
       <use xlink:href="#DejaVuSans-61" x="263.623047"/>
       <use xlink:href="#DejaVuSans-63" x="324.902344"/>
       <use xlink:href="#DejaVuSans-6b" x="379.882812"/>
       <use xlink:href="#DejaVuSans-77" x="437.792969"/>
       <use xlink:href="#DejaVuSans-61" x="519.580078"/>
       <use xlink:href="#DejaVuSans-72" x="580.859375"/>
       <use xlink:href="#DejaVuSans-64" x="620.222656"/>
       <use xlink:href="#DejaVuSans-20" x="683.699219"/>
       <use xlink:href="#DejaVuSans-72" x="715.486328"/>
       <use xlink:href="#DejaVuSans-65" x="754.349609"/>
       <use xlink:href="#DejaVuSans-73" x="815.873047"/>
       <use xlink:href="#DejaVuSans-65" x="867.972656"/>
       <use xlink:href="#DejaVuSans-74" x="929.496094"/>
       <use xlink:href="#DejaVuSans-20" x="968.705078"/>
       <use xlink:href="#DejaVuSans-70" x="1000.492188"/>
       <use xlink:href="#DejaVuSans-72" x="1063.96875"/>
       <use xlink:href="#DejaVuSans-65" x="1102.832031"/>
       <use xlink:href="#DejaVuSans-69" x="1164.355469"/>
       <use xlink:href="#DejaVuSans-6d" x="1192.138672"/>
       <use xlink:href="#DejaVuSans-61" x="1289.550781"/>
       <use xlink:href="#DejaVuSans-67" x="1350.830078"/>
       <use xlink:href="#DejaVuSans-65" x="1414.306641"/>
      </g>
     </g>
    </g>
    <g id="ytick_2">
     <g id="line2d_14"/>
     <g id="text_9">
      <!-- r30 fsm decode fanout -->
      <g style="fill: #6b6b68" transform="translate(44.348906 466.32631) scale(0.09 -0.09)">
       <use xlink:href="#DejaVuSans-72"/>
       <use xlink:href="#DejaVuSans-33" x="41.113281"/>
       <use xlink:href="#DejaVuSans-30" x="104.736328"/>
       <use xlink:href="#DejaVuSans-20" x="168.359375"/>
       <use xlink:href="#DejaVuSans-66" x="200.146484"/>
       <use xlink:href="#DejaVuSans-73" x="235.351562"/>
       <use xlink:href="#DejaVuSans-6d" x="287.451172"/>
       <use xlink:href="#DejaVuSans-20" x="384.863281"/>
       <use xlink:href="#DejaVuSans-64" x="416.650391"/>
       <use xlink:href="#DejaVuSans-65" x="480.126953"/>
       <use xlink:href="#DejaVuSans-63" x="541.650391"/>
       <use xlink:href="#DejaVuSans-6f" x="596.630859"/>
       <use xlink:href="#DejaVuSans-64" x="657.8125"/>
       <use xlink:href="#DejaVuSans-65" x="721.289062"/>
       <use xlink:href="#DejaVuSans-20" x="782.8125"/>
       <use xlink:href="#DejaVuSans-66" x="814.599609"/>
       <use xlink:href="#DejaVuSans-61" x="849.804688"/>
       <use xlink:href="#DejaVuSans-6e" x="911.083984"/>
       <use xlink:href="#DejaVuSans-6f" x="974.462891"/>
       <use xlink:href="#DejaVuSans-75" x="1035.644531"/>
       <use xlink:href="#DejaVuSans-74" x="1099.023438"/>
      </g>
     </g>
    </g>
    <g id="ytick_3">
     <g id="line2d_15"/>
     <g id="text_10">
      <!-- r29 wide crossing -->
      <g style="fill: #6b6b68" transform="translate(67.557656 429.978907) scale(0.09 -0.09)">
       <defs>
        <path id="DejaVuSans-39" d="M 703 97 
L 703 672 
Q 941 559 1184 500 
Q 1428 441 1663 441 
Q 2288 441 2617 861 
Q 2947 1281 2994 2138 
Q 2813 1869 2534 1725 
Q 2256 1581 1919 1581 
Q 1219 1581 811 2004 
Q 403 2428 403 3163 
Q 403 3881 828 4315 
Q 1253 4750 1959 4750 
Q 2769 4750 3195 4129 
Q 3622 3509 3622 2328 
Q 3622 1225 3098 567 
Q 2575 -91 1691 -91 
Q 1453 -91 1209 -44 
Q 966 3 703 97 
z
M 1959 2075 
Q 2384 2075 2632 2365 
Q 2881 2656 2881 3163 
Q 2881 3666 2632 3958 
Q 2384 4250 1959 4250 
Q 1534 4250 1286 3958 
Q 1038 3666 1038 3163 
Q 1038 2656 1286 2365 
Q 1534 2075 1959 2075 
z
" transform="scale(0.015625)"/>
       </defs>
       <use xlink:href="#DejaVuSans-72"/>
       <use xlink:href="#DejaVuSans-32" x="41.113281"/>
       <use xlink:href="#DejaVuSans-39" x="104.736328"/>
       <use xlink:href="#DejaVuSans-20" x="168.359375"/>
       <use xlink:href="#DejaVuSans-77" x="200.146484"/>
       <use xlink:href="#DejaVuSans-69" x="281.933594"/>
       <use xlink:href="#DejaVuSans-64" x="309.716797"/>
       <use xlink:href="#DejaVuSans-65" x="373.193359"/>
       <use xlink:href="#DejaVuSans-20" x="434.716797"/>
       <use xlink:href="#DejaVuSans-63" x="466.503906"/>
       <use xlink:href="#DejaVuSans-72" x="521.484375"/>
       <use xlink:href="#DejaVuSans-6f" x="560.347656"/>
       <use xlink:href="#DejaVuSans-73" x="621.529297"/>
       <use xlink:href="#DejaVuSans-73" x="673.628906"/>
       <use xlink:href="#DejaVuSans-69" x="725.728516"/>
       <use xlink:href="#DejaVuSans-6e" x="753.511719"/>
       <use xlink:href="#DejaVuSans-67" x="816.890625"/>
      </g>
     </g>
    </g>
    <g id="ytick_4">
     <g id="line2d_16"/>
     <g id="text_11">
      <!-- r28 congestion wire split -->
      <g style="fill: #6b6b68" transform="translate(35.891719 393.631505) scale(0.09 -0.09)">
       <defs>
        <path id="DejaVuSans-38" d="M 2034 2216 
Q 1584 2216 1326 1975 
Q 1069 1734 1069 1313 
Q 1069 891 1326 650 
Q 1584 409 2034 409 
Q 2484 409 2743 651 
Q 3003 894 3003 1313 
Q 3003 1734 2745 1975 
Q 2488 2216 2034 2216 
z
M 1403 2484 
Q 997 2584 770 2862 
Q 544 3141 544 3541 
Q 544 4100 942 4425 
Q 1341 4750 2034 4750 
Q 2731 4750 3128 4425 
Q 3525 4100 3525 3541 
Q 3525 3141 3298 2862 
Q 3072 2584 2669 2484 
Q 3125 2378 3379 2068 
Q 3634 1759 3634 1313 
Q 3634 634 3220 271 
Q 2806 -91 2034 -91 
Q 1263 -91 848 271 
Q 434 634 434 1313 
Q 434 1759 690 2068 
Q 947 2378 1403 2484 
z
M 1172 3481 
Q 1172 3119 1398 2916 
Q 1625 2713 2034 2713 
Q 2441 2713 2670 2916 
Q 2900 3119 2900 3481 
Q 2900 3844 2670 4047 
Q 2441 4250 2034 4250 
Q 1625 4250 1398 4047 
Q 1172 3844 1172 3481 
z
" transform="scale(0.015625)"/>
       </defs>
       <use xlink:href="#DejaVuSans-72"/>
       <use xlink:href="#DejaVuSans-32" x="41.113281"/>
       <use xlink:href="#DejaVuSans-38" x="104.736328"/>
       <use xlink:href="#DejaVuSans-20" x="168.359375"/>
       <use xlink:href="#DejaVuSans-63" x="200.146484"/>
       <use xlink:href="#DejaVuSans-6f" x="255.126953"/>
       <use xlink:href="#DejaVuSans-6e" x="316.308594"/>
       <use xlink:href="#DejaVuSans-67" x="379.6875"/>
       <use xlink:href="#DejaVuSans-65" x="443.164062"/>
       <use xlink:href="#DejaVuSans-73" x="504.6875"/>
       <use xlink:href="#DejaVuSans-74" x="556.787109"/>
       <use xlink:href="#DejaVuSans-69" x="595.996094"/>
       <use xlink:href="#DejaVuSans-6f" x="623.779297"/>
       <use xlink:href="#DejaVuSans-6e" x="684.960938"/>
       <use xlink:href="#DejaVuSans-20" x="748.339844"/>
       <use xlink:href="#DejaVuSans-77" x="780.126953"/>
       <use xlink:href="#DejaVuSans-69" x="861.914062"/>
       <use xlink:href="#DejaVuSans-72" x="889.697266"/>
       <use xlink:href="#DejaVuSans-65" x="928.560547"/>
       <use xlink:href="#DejaVuSans-20" x="990.083984"/>
       <use xlink:href="#DejaVuSans-73" x="1021.871094"/>
       <use xlink:href="#DejaVuSans-70" x="1073.970703"/>
       <use xlink:href="#DejaVuSans-6c" x="1137.447266"/>
       <use xlink:href="#DejaVuSans-69" x="1165.230469"/>
       <use xlink:href="#DejaVuSans-74" x="1193.013672"/>
      </g>
     </g>
    </g>
    <g id="ytick_5">
     <g id="line2d_17"/>
     <g id="text_12">
      <!-- r26 sdc exception invalidation -->
      <g style="fill: #6b6b68" transform="translate(11.202188 357.284102) scale(0.09 -0.09)">
       <defs>
        <path id="DejaVuSans-36" d="M 2113 2584 
Q 1688 2584 1439 2293 
Q 1191 2003 1191 1497 
Q 1191 994 1439 701 
Q 1688 409 2113 409 
Q 2538 409 2786 701 
Q 3034 994 3034 1497 
Q 3034 2003 2786 2293 
Q 2538 2584 2113 2584 
z
M 3366 4563 
L 3366 3988 
Q 3128 4100 2886 4159 
Q 2644 4219 2406 4219 
Q 1781 4219 1451 3797 
Q 1122 3375 1075 2522 
Q 1259 2794 1537 2939 
Q 1816 3084 2150 3084 
Q 2853 3084 3261 2657 
Q 3669 2231 3669 1497 
Q 3669 778 3244 343 
Q 2819 -91 2113 -91 
Q 1303 -91 875 529 
Q 447 1150 447 2328 
Q 447 3434 972 4092 
Q 1497 4750 2381 4750 
Q 2619 4750 2861 4703 
Q 3103 4656 3366 4563 
z
" transform="scale(0.015625)"/>
        <path id="DejaVuSans-78" d="M 3513 3500 
L 2247 1797 
L 3578 0 
L 2900 0 
L 1881 1375 
L 863 0 
L 184 0 
L 1544 1831 
L 300 3500 
L 978 3500 
L 1906 2253 
L 2834 3500 
L 3513 3500 
z
" transform="scale(0.015625)"/>
        <path id="DejaVuSans-76" d="M 191 3500 
L 800 3500 
L 1894 563 
L 2988 3500 
L 3597 3500 
L 2284 0 
L 1503 0 
L 191 3500 
z
" transform="scale(0.015625)"/>
       </defs>
       <use xlink:href="#DejaVuSans-72"/>
       <use xlink:href="#DejaVuSans-32" x="41.113281"/>
       <use xlink:href="#DejaVuSans-36" x="104.736328"/>
       <use xlink:href="#DejaVuSans-20" x="168.359375"/>
       <use xlink:href="#DejaVuSans-73" x="200.146484"/>
       <use xlink:href="#DejaVuSans-64" x="252.246094"/>
       <use xlink:href="#DejaVuSans-63" x="315.722656"/>
       <use xlink:href="#DejaVuSans-20" x="370.703125"/>
       <use xlink:href="#DejaVuSans-65" x="402.490234"/>
       <use xlink:href="#DejaVuSans-78" x="462.263672"/>
       <use xlink:href="#DejaVuSans-63" x="519.693359"/>
       <use xlink:href="#DejaVuSans-65" x="574.673828"/>
       <use xlink:href="#DejaVuSans-70" x="636.197266"/>
       <use xlink:href="#DejaVuSans-74" x="699.673828"/>
       <use xlink:href="#DejaVuSans-69" x="738.882812"/>
       <use xlink:href="#DejaVuSans-6f" x="766.666016"/>
       <use xlink:href="#DejaVuSans-6e" x="827.847656"/>
       <use xlink:href="#DejaVuSans-20" x="891.226562"/>
       <use xlink:href="#DejaVuSans-69" x="923.013672"/>
       <use xlink:href="#DejaVuSans-6e" x="950.796875"/>
       <use xlink:href="#DejaVuSans-76" x="1014.175781"/>
       <use xlink:href="#DejaVuSans-61" x="1073.355469"/>
       <use xlink:href="#DejaVuSans-6c" x="1134.634766"/>
       <use xlink:href="#DejaVuSans-69" x="1162.417969"/>
       <use xlink:href="#DejaVuSans-64" x="1190.201172"/>
       <use xlink:href="#DejaVuSans-61" x="1253.677734"/>
       <use xlink:href="#DejaVuSans-74" x="1314.957031"/>
       <use xlink:href="#DejaVuSans-69" x="1354.166016"/>
       <use xlink:href="#DejaVuSans-6f" x="1381.949219"/>
       <use xlink:href="#DejaVuSans-6e" x="1443.130859"/>
      </g>
     </g>
    </g>
    <g id="ytick_6">
     <g id="line2d_18"/>
     <g id="text_13">
      <!-- r24 loop bound control -->
      <g style="fill: #6b6b68" transform="translate(44.295469 320.936699) scale(0.09 -0.09)">
       <defs>
        <path id="DejaVuSans-34" d="M 2419 4116 
L 825 1625 
L 2419 1625 
L 2419 4116 
z
M 2253 4666 
L 3047 4666 
L 3047 1625 
L 3713 1625 
L 3713 1100 
L 3047 1100 
L 3047 0 
L 2419 0 
L 2419 1100 
L 313 1100 
L 313 1709 
L 2253 4666 
z
" transform="scale(0.015625)"/>
       </defs>
       <use xlink:href="#DejaVuSans-72"/>
       <use xlink:href="#DejaVuSans-32" x="41.113281"/>
       <use xlink:href="#DejaVuSans-34" x="104.736328"/>
       <use xlink:href="#DejaVuSans-20" x="168.359375"/>
       <use xlink:href="#DejaVuSans-6c" x="200.146484"/>
       <use xlink:href="#DejaVuSans-6f" x="227.929688"/>
       <use xlink:href="#DejaVuSans-6f" x="289.111328"/>
       <use xlink:href="#DejaVuSans-70" x="350.292969"/>
       <use xlink:href="#DejaVuSans-20" x="413.769531"/>
       <use xlink:href="#DejaVuSans-62" x="445.556641"/>
       <use xlink:href="#DejaVuSans-6f" x="509.033203"/>
       <use xlink:href="#DejaVuSans-75" x="570.214844"/>
       <use xlink:href="#DejaVuSans-6e" x="633.59375"/>
       <use xlink:href="#DejaVuSans-64" x="696.972656"/>
       <use xlink:href="#DejaVuSans-20" x="760.449219"/>
       <use xlink:href="#DejaVuSans-63" x="792.236328"/>
       <use xlink:href="#DejaVuSans-6f" x="847.216797"/>
       <use xlink:href="#DejaVuSans-6e" x="908.398438"/>
       <use xlink:href="#DejaVuSans-74" x="971.777344"/>
       <use xlink:href="#DejaVuSans-72" x="1010.986328"/>
       <use xlink:href="#DejaVuSans-6f" x="1049.849609"/>
       <use xlink:href="#DejaVuSans-6c" x="1111.03125"/>
      </g>
     </g>
    </g>
    <g id="ytick_7">
     <g id="line2d_19"/>
     <g id="text_14">
      <!-- r22 fanout wire load -->
      <g style="fill: #6b6b68" transform="translate(55.798594 284.589297) scale(0.09 -0.09)">
       <use xlink:href="#DejaVuSans-72"/>
       <use xlink:href="#DejaVuSans-32" x="41.113281"/>
       <use xlink:href="#DejaVuSans-32" x="104.736328"/>
       <use xlink:href="#DejaVuSans-20" x="168.359375"/>
       <use xlink:href="#DejaVuSans-66" x="200.146484"/>
       <use xlink:href="#DejaVuSans-61" x="235.351562"/>
       <use xlink:href="#DejaVuSans-6e" x="296.630859"/>
       <use xlink:href="#DejaVuSans-6f" x="360.009766"/>
       <use xlink:href="#DejaVuSans-75" x="421.191406"/>
       <use xlink:href="#DejaVuSans-74" x="484.570312"/>
       <use xlink:href="#DejaVuSans-20" x="523.779297"/>
       <use xlink:href="#DejaVuSans-77" x="555.566406"/>
       <use xlink:href="#DejaVuSans-69" x="637.353516"/>
       <use xlink:href="#DejaVuSans-72" x="665.136719"/>
       <use xlink:href="#DejaVuSans-65" x="704"/>
       <use xlink:href="#DejaVuSans-20" x="765.523438"/>
       <use xlink:href="#DejaVuSans-6c" x="797.310547"/>
       <use xlink:href="#DejaVuSans-6f" x="825.09375"/>
       <use xlink:href="#DejaVuSans-61" x="886.275391"/>
       <use xlink:href="#DejaVuSans-64" x="947.554688"/>
      </g>
     </g>
    </g>
    <g id="ytick_8">
     <g id="line2d_20"/>
     <g id="text_15">
      <!-- r21 wire pipeline cross die -->
      <g style="fill: #6b6b68" transform="translate(28.511719 248.241894) scale(0.09 -0.09)">
       <use xlink:href="#DejaVuSans-72"/>
       <use xlink:href="#DejaVuSans-32" x="41.113281"/>
       <use xlink:href="#DejaVuSans-31" x="104.736328"/>
       <use xlink:href="#DejaVuSans-20" x="168.359375"/>
       <use xlink:href="#DejaVuSans-77" x="200.146484"/>
       <use xlink:href="#DejaVuSans-69" x="281.933594"/>
       <use xlink:href="#DejaVuSans-72" x="309.716797"/>
       <use xlink:href="#DejaVuSans-65" x="348.580078"/>
       <use xlink:href="#DejaVuSans-20" x="410.103516"/>
       <use xlink:href="#DejaVuSans-70" x="441.890625"/>
       <use xlink:href="#DejaVuSans-69" x="505.367188"/>
       <use xlink:href="#DejaVuSans-70" x="533.150391"/>
       <use xlink:href="#DejaVuSans-65" x="596.626953"/>
       <use xlink:href="#DejaVuSans-6c" x="658.150391"/>
       <use xlink:href="#DejaVuSans-69" x="685.933594"/>
       <use xlink:href="#DejaVuSans-6e" x="713.716797"/>
       <use xlink:href="#DejaVuSans-65" x="777.095703"/>
       <use xlink:href="#DejaVuSans-20" x="838.619141"/>
       <use xlink:href="#DejaVuSans-63" x="870.40625"/>
       <use xlink:href="#DejaVuSans-72" x="925.386719"/>
       <use xlink:href="#DejaVuSans-6f" x="964.25"/>
       <use xlink:href="#DejaVuSans-73" x="1025.431641"/>
       <use xlink:href="#DejaVuSans-73" x="1077.53125"/>
       <use xlink:href="#DejaVuSans-20" x="1129.630859"/>
       <use xlink:href="#DejaVuSans-64" x="1161.417969"/>
       <use xlink:href="#DejaVuSans-69" x="1224.894531"/>
       <use xlink:href="#DejaVuSans-65" x="1252.677734"/>
      </g>
     </g>
    </g>
    <g id="ytick_9">
     <g id="line2d_21"/>
     <g id="text_16">
      <!-- r20 glitch absorb -->
      <g style="fill: #6b6b68" transform="translate(70.184531 211.894492) scale(0.09 -0.09)">
       <use xlink:href="#DejaVuSans-72"/>
       <use xlink:href="#DejaVuSans-32" x="41.113281"/>
       <use xlink:href="#DejaVuSans-30" x="104.736328"/>
       <use xlink:href="#DejaVuSans-20" x="168.359375"/>
       <use xlink:href="#DejaVuSans-67" x="200.146484"/>
       <use xlink:href="#DejaVuSans-6c" x="263.623047"/>
       <use xlink:href="#DejaVuSans-69" x="291.40625"/>
       <use xlink:href="#DejaVuSans-74" x="319.189453"/>
       <use xlink:href="#DejaVuSans-63" x="358.398438"/>
       <use xlink:href="#DejaVuSans-68" x="413.378906"/>
       <use xlink:href="#DejaVuSans-20" x="476.757812"/>
       <use xlink:href="#DejaVuSans-61" x="508.544922"/>
       <use xlink:href="#DejaVuSans-62" x="569.824219"/>
       <use xlink:href="#DejaVuSans-73" x="633.300781"/>
       <use xlink:href="#DejaVuSans-6f" x="685.400391"/>
       <use xlink:href="#DejaVuSans-72" x="746.582031"/>
       <use xlink:href="#DejaVuSans-62" x="787.695312"/>
      </g>
     </g>
    </g>
    <g id="ytick_10">
     <g id="line2d_22"/>
     <g id="text_17">
      <!-- r16 dont touch conflict -->
      <g style="fill: #6b6b68" transform="translate(44.407969 175.547089) scale(0.09 -0.09)">
       <use xlink:href="#DejaVuSans-72"/>
       <use xlink:href="#DejaVuSans-31" x="41.113281"/>
       <use xlink:href="#DejaVuSans-36" x="104.736328"/>
       <use xlink:href="#DejaVuSans-20" x="168.359375"/>
       <use xlink:href="#DejaVuSans-64" x="200.146484"/>
       <use xlink:href="#DejaVuSans-6f" x="263.623047"/>
       <use xlink:href="#DejaVuSans-6e" x="324.804688"/>
       <use xlink:href="#DejaVuSans-74" x="388.183594"/>
       <use xlink:href="#DejaVuSans-20" x="427.392578"/>
       <use xlink:href="#DejaVuSans-74" x="459.179688"/>
       <use xlink:href="#DejaVuSans-6f" x="498.388672"/>
       <use xlink:href="#DejaVuSans-75" x="559.570312"/>
       <use xlink:href="#DejaVuSans-63" x="622.949219"/>
       <use xlink:href="#DejaVuSans-68" x="677.929688"/>
       <use xlink:href="#DejaVuSans-20" x="741.308594"/>
       <use xlink:href="#DejaVuSans-63" x="773.095703"/>
       <use xlink:href="#DejaVuSans-6f" x="828.076172"/>
       <use xlink:href="#DejaVuSans-6e" x="889.257812"/>
       <use xlink:href="#DejaVuSans-66" x="952.636719"/>
       <use xlink:href="#DejaVuSans-6c" x="987.841797"/>
       <use xlink:href="#DejaVuSans-69" x="1015.625"/>
       <use xlink:href="#DejaVuSans-63" x="1043.408203"/>
       <use xlink:href="#DejaVuSans-74" x="1098.388672"/>
      </g>
     </g>
    </g>
    <g id="ytick_11">
     <g id="line2d_23"/>
     <g id="text_18">
      <!-- r08 fsm output decode -->
      <g style="fill: #6b6b68" transform="translate(43.790625 139.199686) scale(0.09 -0.09)">
       <use xlink:href="#DejaVuSans-72"/>
       <use xlink:href="#DejaVuSans-30" x="41.113281"/>
       <use xlink:href="#DejaVuSans-38" x="104.736328"/>
       <use xlink:href="#DejaVuSans-20" x="168.359375"/>
       <use xlink:href="#DejaVuSans-66" x="200.146484"/>
       <use xlink:href="#DejaVuSans-73" x="235.351562"/>
       <use xlink:href="#DejaVuSans-6d" x="287.451172"/>
       <use xlink:href="#DejaVuSans-20" x="384.863281"/>
       <use xlink:href="#DejaVuSans-6f" x="416.650391"/>
       <use xlink:href="#DejaVuSans-75" x="477.832031"/>
       <use xlink:href="#DejaVuSans-74" x="541.210938"/>
       <use xlink:href="#DejaVuSans-70" x="580.419922"/>
       <use xlink:href="#DejaVuSans-75" x="643.896484"/>
       <use xlink:href="#DejaVuSans-74" x="707.275391"/>
       <use xlink:href="#DejaVuSans-20" x="746.484375"/>
       <use xlink:href="#DejaVuSans-64" x="778.271484"/>
       <use xlink:href="#DejaVuSans-65" x="841.748047"/>
       <use xlink:href="#DejaVuSans-63" x="903.271484"/>
       <use xlink:href="#DejaVuSans-6f" x="958.251953"/>
       <use xlink:href="#DejaVuSans-64" x="1019.433594"/>
       <use xlink:href="#DejaVuSans-65" x="1082.910156"/>
      </g>
     </g>
    </g>
    <g id="ytick_12">
     <g id="line2d_24"/>
     <g id="text_19">
      <!-- r06 fsm high fanin -->
      <g style="fill: #6b6b68" transform="translate(64.220625 102.852284) scale(0.09 -0.09)">
       <use xlink:href="#DejaVuSans-72"/>
       <use xlink:href="#DejaVuSans-30" x="41.113281"/>
       <use xlink:href="#DejaVuSans-36" x="104.736328"/>
       <use xlink:href="#DejaVuSans-20" x="168.359375"/>
       <use xlink:href="#DejaVuSans-66" x="200.146484"/>
       <use xlink:href="#DejaVuSans-73" x="235.351562"/>
       <use xlink:href="#DejaVuSans-6d" x="287.451172"/>
       <use xlink:href="#DejaVuSans-20" x="384.863281"/>
       <use xlink:href="#DejaVuSans-68" x="416.650391"/>
       <use xlink:href="#DejaVuSans-69" x="480.029297"/>
       <use xlink:href="#DejaVuSans-67" x="507.8125"/>
       <use xlink:href="#DejaVuSans-68" x="571.289062"/>
       <use xlink:href="#DejaVuSans-20" x="634.667969"/>
       <use xlink:href="#DejaVuSans-66" x="666.455078"/>
       <use xlink:href="#DejaVuSans-61" x="701.660156"/>
       <use xlink:href="#DejaVuSans-6e" x="762.939453"/>
       <use xlink:href="#DejaVuSans-69" x="826.318359"/>
       <use xlink:href="#DejaVuSans-6e" x="854.101562"/>
      </g>
     </g>
    </g>
    <g id="ytick_13">
     <g id="line2d_25"/>
     <g id="text_20">
      <!-- r05 fsm high fanout -->
      <g style="fill: #6b6b68" transform="translate(57.685781 66.504881) scale(0.09 -0.09)">
       <use xlink:href="#DejaVuSans-72"/>
       <use xlink:href="#DejaVuSans-30" x="41.113281"/>
       <use xlink:href="#DejaVuSans-35" x="104.736328"/>
       <use xlink:href="#DejaVuSans-20" x="168.359375"/>
       <use xlink:href="#DejaVuSans-66" x="200.146484"/>
       <use xlink:href="#DejaVuSans-73" x="235.351562"/>
       <use xlink:href="#DejaVuSans-6d" x="287.451172"/>
       <use xlink:href="#DejaVuSans-20" x="384.863281"/>
       <use xlink:href="#DejaVuSans-68" x="416.650391"/>
       <use xlink:href="#DejaVuSans-69" x="480.029297"/>
       <use xlink:href="#DejaVuSans-67" x="507.8125"/>
       <use xlink:href="#DejaVuSans-68" x="571.289062"/>
       <use xlink:href="#DejaVuSans-20" x="634.667969"/>
       <use xlink:href="#DejaVuSans-66" x="666.455078"/>
       <use xlink:href="#DejaVuSans-61" x="701.660156"/>
       <use xlink:href="#DejaVuSans-6e" x="762.939453"/>
       <use xlink:href="#DejaVuSans-6f" x="826.318359"/>
       <use xlink:href="#DejaVuSans-75" x="887.5"/>
       <use xlink:href="#DejaVuSans-74" x="950.878906"/>
      </g>
     </g>
    </g>
   </g>
   <g id="line2d_26">
    <path d="M 528.624852 527.46 
L 528.624852 34.88 
" clip-path="url(#p9eaf97279f)" style="fill: none; stroke: #1a1a19; stroke-width: 1.1; stroke-linecap: square"/>
   </g>
   <g id="line2d_27">
    <path d="M 528.624852 57.27 
L 699.292275 57.27 
" clip-path="url(#p9eaf97279f)" style="fill: none; stroke: #2a78d6; stroke-width: 2.4; stroke-linecap: round"/>
   </g>
   <g id="line2d_28">
    <path d="M 528.624852 68.901169 
L 456.616121 68.901169 
" clip-path="url(#p9eaf97279f)" style="fill: none; stroke: #eb6834; stroke-width: 2.4; stroke-linecap: round"/>
   </g>
   <g id="line2d_29">
    <path d="M 528.624852 93.617403 
L 568.049568 93.617403 
" clip-path="url(#p9eaf97279f)" style="fill: none; stroke: #2a78d6; stroke-width: 2.4; stroke-linecap: round"/>
   </g>
   <g id="line2d_30">
    <path d="M 528.624852 105.248571 
L 738.986774 105.248571 
" clip-path="url(#p9eaf97279f)" style="fill: none; stroke: #eb6834; stroke-width: 2.4; stroke-linecap: round"/>
   </g>
   <g id="line2d_31">
    <path d="M 528.624852 129.964805 
L 705.469662 129.964805 
" clip-path="url(#p9eaf97279f)" style="fill: none; stroke: #2a78d6; stroke-width: 2.4; stroke-linecap: round"/>
   </g>
   <g id="line2d_32">
    <path d="M 528.624852 141.595974 
L 679.148979 141.595974 
" clip-path="url(#p9eaf97279f)" style="fill: none; stroke: #eb6834; stroke-width: 2.4; stroke-linecap: round"/>
   </g>
   <g id="line2d_33">
    <path d="M 528.624852 166.312208 
L 674.588129 166.312208 
" clip-path="url(#p9eaf97279f)" style="fill: none; stroke: #2a78d6; stroke-width: 2.4; stroke-linecap: round"/>
   </g>
   <g id="line2d_34">
    <path d="M 528.624852 177.943377 
L 689.050768 177.943377 
" clip-path="url(#p9eaf97279f)" style="fill: none; stroke: #eb6834; stroke-width: 2.4; stroke-linecap: round"/>
   </g>
   <g id="line2d_35">
    <path d="M 528.624852 202.65961 
L 641.152586 202.65961 
" clip-path="url(#p9eaf97279f)" style="fill: none; stroke: #2a78d6; stroke-width: 2.4; stroke-linecap: round"/>
   </g>
   <g id="line2d_36">
    <path d="M 528.624852 214.290779 
L 602.633713 214.290779 
" clip-path="url(#p9eaf97279f)" style="fill: none; stroke: #eb6834; stroke-width: 2.4; stroke-linecap: round"/>
   </g>
   <g id="line2d_37">
    <path d="M 528.624852 239.007013 
L 739.712273 239.007013 
" clip-path="url(#p9eaf97279f)" style="fill: none; stroke: #2a78d6; stroke-width: 2.4; stroke-linecap: round"/>
   </g>
   <g id="line2d_38">
    <path d="M 528.624852 250.638182 
L 481.280585 250.638182 
" clip-path="url(#p9eaf97279f)" style="fill: none; stroke: #eb6834; stroke-width: 2.4; stroke-linecap: round"/>
   </g>
   <g id="line2d_39">
    <path d="M 528.624852 275.354416 
L 649.497707 275.354416 
" clip-path="url(#p9eaf97279f)" style="fill: none; stroke: #2a78d6; stroke-width: 2.4; stroke-linecap: round"/>
   </g>
   <g id="line2d_40">
    <path d="M 528.624852 286.985584 
L 686.460829 286.985584 
" clip-path="url(#p9eaf97279f)" style="fill: none; stroke: #eb6834; stroke-width: 2.4; stroke-linecap: round"/>
   </g>
   <g id="line2d_41">
    <path d="M 528.624852 311.701818 
L 474.943317 311.701818 
" clip-path="url(#p9eaf97279f)" style="fill: none; stroke: #2a78d6; stroke-width: 2.4; stroke-linecap: round"/>
   </g>
   <g id="line2d_42">
    <path d="M 528.624852 323.332987 
L 528.624852 323.332987 
" clip-path="url(#p9eaf97279f)" style="fill: none; stroke: #eb6834; stroke-width: 2.4; stroke-linecap: round"/>
   </g>
   <g id="line2d_43">
    <path d="M 528.624852 348.049221 
L 436.235774 348.049221 
" clip-path="url(#p9eaf97279f)" style="fill: none; stroke: #2a78d6; stroke-width: 2.4; stroke-linecap: round"/>
   </g>
   <g id="line2d_44">
    <path d="M 528.624852 359.68039 
L 366.296088 359.68039 
" clip-path="url(#p9eaf97279f)" style="fill: none; stroke: #eb6834; stroke-width: 2.4; stroke-linecap: round"/>
   </g>
   <g id="line2d_45">
    <path d="M 528.624852 384.396623 
L 681.979043 384.396623 
" clip-path="url(#p9eaf97279f)" style="fill: none; stroke: #2a78d6; stroke-width: 2.4; stroke-linecap: round"/>
   </g>
   <g id="line2d_46">
    <path d="M 528.624852 396.027792 
L 726.161341 396.027792 
" clip-path="url(#p9eaf97279f)" style="fill: none; stroke: #eb6834; stroke-width: 2.4; stroke-linecap: round"/>
   </g>
   <g id="line2d_47">
    <path d="M 528.624852 420.744026 
L 498.276736 420.744026 
" clip-path="url(#p9eaf97279f)" style="fill: none; stroke: #2a78d6; stroke-width: 2.4; stroke-linecap: round"/>
   </g>
   <g id="line2d_48">
    <path d="M 528.624852 432.375195 
L 676.376765 432.375195 
" clip-path="url(#p9eaf97279f)" style="fill: none; stroke: #eb6834; stroke-width: 2.4; stroke-linecap: round"/>
   </g>
   <g id="line2d_49">
    <path d="M 528.624852 457.091429 
L 178.357727 457.091429 
" clip-path="url(#p9eaf97279f)" style="fill: none; stroke: #2a78d6; stroke-width: 2.4; stroke-linecap: round"/>
   </g>
   <g id="line2d_50">
    <path d="M 528.624852 468.722597 
L 553.897949 468.722597 
" clip-path="url(#p9eaf97279f)" style="fill: none; stroke: #eb6834; stroke-width: 2.4; stroke-linecap: round"/>
   </g>
   <g id="line2d_51">
    <path d="M 528.624852 493.438831 
L 694.860242 493.438831 
" clip-path="url(#p9eaf97279f)" style="fill: none; stroke: #2a78d6; stroke-width: 2.4; stroke-linecap: round"/>
   </g>
   <g id="line2d_52">
    <path d="M 528.624852 505.07 
L 529.448093 505.07 
" clip-path="url(#p9eaf97279f)" style="fill: none; stroke: #eb6834; stroke-width: 2.4; stroke-linecap: round"/>
   </g>
   <g id="patch_3">
    <path d="M 150.29 527.46 
L 767.78 527.46 
" style="fill: none; stroke: #e6e6e3; stroke-width: 0.8; stroke-linejoin: miter; stroke-linecap: square"/>
   </g>
   <g id="line2d_53">
    <defs>
     <path id="m3ef84c6bcb" d="M 0 4 
C 1.060812 4 2.078319 3.578535 2.828427 2.828427 
C 3.578535 2.078319 4 1.060812 4 0 
C 4 -1.060812 3.578535 -2.078319 2.828427 -2.828427 
C 2.078319 -3.578535 1.060812 -4 0 -4 
C -1.060812 -4 -2.078319 -3.578535 -2.828427 -2.828427 
C -3.578535 -2.078319 -4 -1.060812 -4 0 
C -4 1.060812 -3.578535 2.078319 -2.828427 2.828427 
C -2.078319 3.578535 -1.060812 4 0 4 
z
" style="stroke: #ffffff; stroke-width: 1.6"/>
    </defs>
    <g clip-path="url(#p9eaf97279f)">
     <use xlink:href="#m3ef84c6bcb" x="699.292275" y="57.27" style="fill: #2a78d6; stroke: #ffffff; stroke-width: 1.6"/>
    </g>
   </g>
   <g id="text_21">
    <!-- +81% -->
    <g style="fill: #6b6b68" transform="translate(709.292275 59.615469) scale(0.085 -0.085)">
     <defs>
      <path id="DejaVuSans-2b" d="M 2944 4013 
L 2944 2272 
L 4684 2272 
L 4684 1741 
L 2944 1741 
L 2944 0 
L 2419 0 
L 2419 1741 
L 678 1741 
L 678 2272 
L 2419 2272 
L 2419 4013 
L 2944 4013 
z
" transform="scale(0.015625)"/>
     </defs>
     <use xlink:href="#DejaVuSans-2b"/>
     <use xlink:href="#DejaVuSans-38" x="83.789062"/>
     <use xlink:href="#DejaVuSans-31" x="147.412109"/>
     <use xlink:href="#DejaVuSans-25" x="211.035156"/>
    </g>
   </g>
   <g id="line2d_54">
    <defs>
     <path id="mc24212a974" d="M -4 4 
L 4 4 
L 4 -4 
L -4 -4 
z
" style="stroke: #ffffff; stroke-width: 1.6; stroke-linejoin: miter"/>
    </defs>
    <g clip-path="url(#p9eaf97279f)">
     <use xlink:href="#mc24212a974" x="456.616121" y="68.901169" style="fill: #eb6834; stroke: #ffffff; stroke-width: 1.6; stroke-linejoin: miter"/>
    </g>
   </g>
   <g id="text_22">
    <!-- -34% -->
    <g style="fill: #6b6b68" transform="translate(424.656902 71.246638) scale(0.085 -0.085)">
     <defs>
      <path id="DejaVuSans-2d" d="M 313 2009 
L 1997 2009 
L 1997 1497 
L 313 1497 
L 313 2009 
z
" transform="scale(0.015625)"/>
     </defs>
     <use xlink:href="#DejaVuSans-2d"/>
     <use xlink:href="#DejaVuSans-33" x="36.083984"/>
     <use xlink:href="#DejaVuSans-34" x="99.707031"/>
     <use xlink:href="#DejaVuSans-25" x="163.330078"/>
    </g>
   </g>
   <g id="line2d_55">
    <g clip-path="url(#p9eaf97279f)">
     <use xlink:href="#m3ef84c6bcb" x="568.049568" y="93.617403" style="fill: #2a78d6; stroke: #ffffff; stroke-width: 1.6"/>
    </g>
   </g>
   <g id="text_23">
    <!-- +19% -->
    <g style="fill: #6b6b68" transform="translate(578.049568 95.962871) scale(0.085 -0.085)">
     <use xlink:href="#DejaVuSans-2b"/>
     <use xlink:href="#DejaVuSans-31" x="83.789062"/>
     <use xlink:href="#DejaVuSans-39" x="147.412109"/>
     <use xlink:href="#DejaVuSans-25" x="211.035156"/>
    </g>
   </g>
   <g id="line2d_56">
    <g clip-path="url(#p9eaf97279f)">
     <use xlink:href="#mc24212a974" x="738.986774" y="105.248571" style="fill: #eb6834; stroke: #ffffff; stroke-width: 1.6; stroke-linejoin: miter"/>
    </g>
   </g>
   <g id="text_24">
    <!-- +100% -->
    <g style="fill: #6b6b68" transform="translate(748.986774 107.59404) scale(0.085 -0.085)">
     <use xlink:href="#DejaVuSans-2b"/>
     <use xlink:href="#DejaVuSans-31" x="83.789062"/>
     <use xlink:href="#DejaVuSans-30" x="147.412109"/>
     <use xlink:href="#DejaVuSans-30" x="211.035156"/>
     <use xlink:href="#DejaVuSans-25" x="274.658203"/>
    </g>
   </g>
   <g id="line2d_57">
    <g clip-path="url(#p9eaf97279f)">
     <use xlink:href="#m3ef84c6bcb" x="705.469662" y="129.964805" style="fill: #2a78d6; stroke: #ffffff; stroke-width: 1.6"/>
    </g>
   </g>
   <g id="text_25">
    <!-- +84% -->
    <g style="fill: #6b6b68" transform="translate(715.469662 132.310274) scale(0.085 -0.085)">
     <use xlink:href="#DejaVuSans-2b"/>
     <use xlink:href="#DejaVuSans-38" x="83.789062"/>
     <use xlink:href="#DejaVuSans-34" x="147.412109"/>
     <use xlink:href="#DejaVuSans-25" x="211.035156"/>
    </g>
   </g>
   <g id="line2d_58">
    <g clip-path="url(#p9eaf97279f)">
     <use xlink:href="#mc24212a974" x="679.148979" y="141.595974" style="fill: #eb6834; stroke: #ffffff; stroke-width: 1.6; stroke-linejoin: miter"/>
    </g>
   </g>
   <g id="text_26">
    <!-- +71% -->
    <g style="fill: #6b6b68" transform="translate(689.148979 143.941443) scale(0.085 -0.085)">
     <defs>
      <path id="DejaVuSans-37" d="M 525 4666 
L 3525 4666 
L 3525 4397 
L 1831 0 
L 1172 0 
L 2766 4134 
L 525 4134 
L 525 4666 
z
" transform="scale(0.015625)"/>
     </defs>
     <use xlink:href="#DejaVuSans-2b"/>
     <use xlink:href="#DejaVuSans-37" x="83.789062"/>
     <use xlink:href="#DejaVuSans-31" x="147.412109"/>
     <use xlink:href="#DejaVuSans-25" x="211.035156"/>
    </g>
   </g>
   <g id="line2d_59">
    <g clip-path="url(#p9eaf97279f)">
     <use xlink:href="#m3ef84c6bcb" x="674.588129" y="166.312208" style="fill: #2a78d6; stroke: #ffffff; stroke-width: 1.6"/>
    </g>
   </g>
   <g id="text_27">
    <!-- +69% -->
    <g style="fill: #6b6b68" transform="translate(684.588129 168.657677) scale(0.085 -0.085)">
     <use xlink:href="#DejaVuSans-2b"/>
     <use xlink:href="#DejaVuSans-36" x="83.789062"/>
     <use xlink:href="#DejaVuSans-39" x="147.412109"/>
     <use xlink:href="#DejaVuSans-25" x="211.035156"/>
    </g>
   </g>
   <g id="line2d_60">
    <g clip-path="url(#p9eaf97279f)">
     <use xlink:href="#mc24212a974" x="689.050768" y="177.943377" style="fill: #eb6834; stroke: #ffffff; stroke-width: 1.6; stroke-linejoin: miter"/>
    </g>
   </g>
   <g id="text_28">
    <!-- +76% -->
    <g style="fill: #6b6b68" transform="translate(699.050768 180.288845) scale(0.085 -0.085)">
     <use xlink:href="#DejaVuSans-2b"/>
     <use xlink:href="#DejaVuSans-37" x="83.789062"/>
     <use xlink:href="#DejaVuSans-36" x="147.412109"/>
     <use xlink:href="#DejaVuSans-25" x="211.035156"/>
    </g>
   </g>
   <g id="line2d_61">
    <g clip-path="url(#p9eaf97279f)">
     <use xlink:href="#m3ef84c6bcb" x="641.152586" y="202.65961" style="fill: #2a78d6; stroke: #ffffff; stroke-width: 1.6"/>
    </g>
   </g>
   <g id="text_29">
    <!-- +53% -->
    <g style="fill: #6b6b68" transform="translate(651.152586 205.005079) scale(0.085 -0.085)">
     <use xlink:href="#DejaVuSans-2b"/>
     <use xlink:href="#DejaVuSans-35" x="83.789062"/>
     <use xlink:href="#DejaVuSans-33" x="147.412109"/>
     <use xlink:href="#DejaVuSans-25" x="211.035156"/>
    </g>
   </g>
   <g id="line2d_62">
    <g clip-path="url(#p9eaf97279f)">
     <use xlink:href="#mc24212a974" x="602.633713" y="214.290779" style="fill: #eb6834; stroke: #ffffff; stroke-width: 1.6; stroke-linejoin: miter"/>
    </g>
   </g>
   <g id="text_30">
    <!-- +35% -->
    <g style="fill: #6b6b68" transform="translate(612.633713 216.636248) scale(0.085 -0.085)">
     <use xlink:href="#DejaVuSans-2b"/>
     <use xlink:href="#DejaVuSans-33" x="83.789062"/>
     <use xlink:href="#DejaVuSans-35" x="147.412109"/>
     <use xlink:href="#DejaVuSans-25" x="211.035156"/>
    </g>
   </g>
   <g id="line2d_63">
    <g clip-path="url(#p9eaf97279f)">
     <use xlink:href="#m3ef84c6bcb" x="739.712273" y="239.007013" style="fill: #2a78d6; stroke: #ffffff; stroke-width: 1.6"/>
    </g>
   </g>
   <g id="text_31">
    <!-- +100% -->
    <g style="fill: #6b6b68" transform="translate(749.712273 241.352482) scale(0.085 -0.085)">
     <use xlink:href="#DejaVuSans-2b"/>
     <use xlink:href="#DejaVuSans-31" x="83.789062"/>
     <use xlink:href="#DejaVuSans-30" x="147.412109"/>
     <use xlink:href="#DejaVuSans-30" x="211.035156"/>
     <use xlink:href="#DejaVuSans-25" x="274.658203"/>
    </g>
   </g>
   <g id="line2d_64">
    <g clip-path="url(#p9eaf97279f)">
     <use xlink:href="#mc24212a974" x="481.280585" y="250.638182" style="fill: #eb6834; stroke: #ffffff; stroke-width: 1.6; stroke-linejoin: miter"/>
    </g>
   </g>
   <g id="text_32">
    <!-- -22% -->
    <g style="fill: #6b6b68" transform="translate(449.321367 252.983651) scale(0.085 -0.085)">
     <use xlink:href="#DejaVuSans-2d"/>
     <use xlink:href="#DejaVuSans-32" x="36.083984"/>
     <use xlink:href="#DejaVuSans-32" x="99.707031"/>
     <use xlink:href="#DejaVuSans-25" x="163.330078"/>
    </g>
   </g>
   <g id="line2d_65">
    <g clip-path="url(#p9eaf97279f)">
     <use xlink:href="#m3ef84c6bcb" x="649.497707" y="275.354416" style="fill: #2a78d6; stroke: #ffffff; stroke-width: 1.6"/>
    </g>
   </g>
   <g id="text_33">
    <!-- +57% -->
    <g style="fill: #6b6b68" transform="translate(659.497707 277.699884) scale(0.085 -0.085)">
     <use xlink:href="#DejaVuSans-2b"/>
     <use xlink:href="#DejaVuSans-35" x="83.789062"/>
     <use xlink:href="#DejaVuSans-37" x="147.412109"/>
     <use xlink:href="#DejaVuSans-25" x="211.035156"/>
    </g>
   </g>
   <g id="line2d_66">
    <g clip-path="url(#p9eaf97279f)">
     <use xlink:href="#mc24212a974" x="686.460829" y="286.985584" style="fill: #eb6834; stroke: #ffffff; stroke-width: 1.6; stroke-linejoin: miter"/>
    </g>
   </g>
   <g id="text_34">
    <!-- +75% -->
    <g style="fill: #6b6b68" transform="translate(696.460829 289.331053) scale(0.085 -0.085)">
     <use xlink:href="#DejaVuSans-2b"/>
     <use xlink:href="#DejaVuSans-37" x="83.789062"/>
     <use xlink:href="#DejaVuSans-35" x="147.412109"/>
     <use xlink:href="#DejaVuSans-25" x="211.035156"/>
    </g>
   </g>
   <g id="line2d_67">
    <g clip-path="url(#p9eaf97279f)">
     <use xlink:href="#m3ef84c6bcb" x="474.943317" y="311.701818" style="fill: #2a78d6; stroke: #ffffff; stroke-width: 1.6"/>
    </g>
   </g>
   <g id="text_35">
    <!-- -25% -->
    <g style="fill: #6b6b68" transform="translate(442.984098 314.047287) scale(0.085 -0.085)">
     <use xlink:href="#DejaVuSans-2d"/>
     <use xlink:href="#DejaVuSans-32" x="36.083984"/>
     <use xlink:href="#DejaVuSans-35" x="99.707031"/>
     <use xlink:href="#DejaVuSans-25" x="163.330078"/>
    </g>
   </g>
   <g id="line2d_68">
    <g clip-path="url(#p9eaf97279f)">
     <use xlink:href="#mc24212a974" x="528.624852" y="323.332987" style="fill: #eb6834; stroke: #ffffff; stroke-width: 1.6; stroke-linejoin: miter"/>
    </g>
   </g>
   <g id="text_36">
    <!-- +0% -->
    <g style="fill: #6b6b68" transform="translate(538.624852 325.678456) scale(0.085 -0.085)">
     <use xlink:href="#DejaVuSans-2b"/>
     <use xlink:href="#DejaVuSans-30" x="83.789062"/>
     <use xlink:href="#DejaVuSans-25" x="147.412109"/>
    </g>
   </g>
   <g id="line2d_69">
    <g clip-path="url(#p9eaf97279f)">
     <use xlink:href="#m3ef84c6bcb" x="436.235774" y="348.049221" style="fill: #2a78d6; stroke: #ffffff; stroke-width: 1.6"/>
    </g>
   </g>
   <g id="text_37">
    <!-- -44% -->
    <g style="fill: #6b6b68" transform="translate(404.276556 350.39469) scale(0.085 -0.085)">
     <use xlink:href="#DejaVuSans-2d"/>
     <use xlink:href="#DejaVuSans-34" x="36.083984"/>
     <use xlink:href="#DejaVuSans-34" x="99.707031"/>
     <use xlink:href="#DejaVuSans-25" x="163.330078"/>
    </g>
   </g>
   <g id="line2d_70">
    <g clip-path="url(#p9eaf97279f)">
     <use xlink:href="#mc24212a974" x="366.296088" y="359.68039" style="fill: #eb6834; stroke: #ffffff; stroke-width: 1.6; stroke-linejoin: miter"/>
    </g>
   </g>
   <g id="text_38">
    <!-- -77% -->
    <g style="fill: #6b6b68" transform="translate(334.336869 362.025858) scale(0.085 -0.085)">
     <use xlink:href="#DejaVuSans-2d"/>
     <use xlink:href="#DejaVuSans-37" x="36.083984"/>
     <use xlink:href="#DejaVuSans-37" x="99.707031"/>
     <use xlink:href="#DejaVuSans-25" x="163.330078"/>
    </g>
   </g>
   <g id="line2d_71">
    <g clip-path="url(#p9eaf97279f)">
     <use xlink:href="#m3ef84c6bcb" x="681.979043" y="384.396623" style="fill: #2a78d6; stroke: #ffffff; stroke-width: 1.6"/>
    </g>
   </g>
   <g id="text_39">
    <!-- +73% -->
    <g style="fill: #6b6b68" transform="translate(691.979043 386.742092) scale(0.085 -0.085)">
     <use xlink:href="#DejaVuSans-2b"/>
     <use xlink:href="#DejaVuSans-37" x="83.789062"/>
     <use xlink:href="#DejaVuSans-33" x="147.412109"/>
     <use xlink:href="#DejaVuSans-25" x="211.035156"/>
    </g>
   </g>
   <g id="line2d_72">
    <g clip-path="url(#p9eaf97279f)">
     <use xlink:href="#mc24212a974" x="726.161341" y="396.027792" style="fill: #eb6834; stroke: #ffffff; stroke-width: 1.6; stroke-linejoin: miter"/>
    </g>
   </g>
   <g id="text_40">
    <!-- +93% -->
    <g style="fill: #6b6b68" transform="translate(736.161341 398.373261) scale(0.085 -0.085)">
     <use xlink:href="#DejaVuSans-2b"/>
     <use xlink:href="#DejaVuSans-39" x="83.789062"/>
     <use xlink:href="#DejaVuSans-33" x="147.412109"/>
     <use xlink:href="#DejaVuSans-25" x="211.035156"/>
    </g>
   </g>
   <g id="line2d_73">
    <g clip-path="url(#p9eaf97279f)">
     <use xlink:href="#m3ef84c6bcb" x="498.276736" y="420.744026" style="fill: #2a78d6; stroke: #ffffff; stroke-width: 1.6"/>
    </g>
   </g>
   <g id="text_41">
    <!-- -14% -->
    <g style="fill: #6b6b68" transform="translate(466.317518 423.089495) scale(0.085 -0.085)">
     <use xlink:href="#DejaVuSans-2d"/>
     <use xlink:href="#DejaVuSans-31" x="36.083984"/>
     <use xlink:href="#DejaVuSans-34" x="99.707031"/>
     <use xlink:href="#DejaVuSans-25" x="163.330078"/>
    </g>
   </g>
   <g id="line2d_74">
    <g clip-path="url(#p9eaf97279f)">
     <use xlink:href="#mc24212a974" x="676.376765" y="432.375195" style="fill: #eb6834; stroke: #ffffff; stroke-width: 1.6; stroke-linejoin: miter"/>
    </g>
   </g>
   <g id="text_42">
    <!-- +70% -->
    <g style="fill: #6b6b68" transform="translate(686.376765 434.720664) scale(0.085 -0.085)">
     <use xlink:href="#DejaVuSans-2b"/>
     <use xlink:href="#DejaVuSans-37" x="83.789062"/>
     <use xlink:href="#DejaVuSans-30" x="147.412109"/>
     <use xlink:href="#DejaVuSans-25" x="211.035156"/>
    </g>
   </g>
   <g id="line2d_75">
    <g clip-path="url(#p9eaf97279f)">
     <use xlink:href="#m3ef84c6bcb" x="178.357727" y="457.091429" style="fill: #2a78d6; stroke: #ffffff; stroke-width: 1.6"/>
    </g>
   </g>
   <g id="text_43">
    <!-- -166% -->
    <g style="fill: #6b6b68" transform="translate(140.990384 459.436897) scale(0.085 -0.085)">
     <use xlink:href="#DejaVuSans-2d"/>
     <use xlink:href="#DejaVuSans-31" x="36.083984"/>
     <use xlink:href="#DejaVuSans-36" x="99.707031"/>
     <use xlink:href="#DejaVuSans-36" x="163.330078"/>
     <use xlink:href="#DejaVuSans-25" x="226.953125"/>
    </g>
   </g>
   <g id="line2d_76">
    <g clip-path="url(#p9eaf97279f)">
     <use xlink:href="#mc24212a974" x="553.897949" y="468.722597" style="fill: #eb6834; stroke: #ffffff; stroke-width: 1.6; stroke-linejoin: miter"/>
    </g>
   </g>
   <g id="text_44">
    <!-- +12% -->
    <g style="fill: #6b6b68" transform="translate(563.897949 471.068066) scale(0.085 -0.085)">
     <use xlink:href="#DejaVuSans-2b"/>
     <use xlink:href="#DejaVuSans-31" x="83.789062"/>
     <use xlink:href="#DejaVuSans-32" x="147.412109"/>
     <use xlink:href="#DejaVuSans-25" x="211.035156"/>
    </g>
   </g>
   <g id="line2d_77">
    <g clip-path="url(#p9eaf97279f)">
     <use xlink:href="#m3ef84c6bcb" x="694.860242" y="493.438831" style="fill: #2a78d6; stroke: #ffffff; stroke-width: 1.6"/>
    </g>
   </g>
   <g id="text_45">
    <!-- +79% -->
    <g style="fill: #6b6b68" transform="translate(704.860242 495.7843) scale(0.085 -0.085)">
     <use xlink:href="#DejaVuSans-2b"/>
     <use xlink:href="#DejaVuSans-37" x="83.789062"/>
     <use xlink:href="#DejaVuSans-39" x="147.412109"/>
     <use xlink:href="#DejaVuSans-25" x="211.035156"/>
    </g>
   </g>
   <g id="line2d_78">
    <g clip-path="url(#p9eaf97279f)">
     <use xlink:href="#mc24212a974" x="529.448093" y="505.07" style="fill: #eb6834; stroke: #ffffff; stroke-width: 1.6; stroke-linejoin: miter"/>
    </g>
   </g>
   <g id="text_46">
    <!-- +0% -->
    <g style="fill: #6b6b68" transform="translate(539.448093 507.415469) scale(0.085 -0.085)">
     <use xlink:href="#DejaVuSans-2b"/>
     <use xlink:href="#DejaVuSans-30" x="83.789062"/>
     <use xlink:href="#DejaVuSans-25" x="147.412109"/>
    </g>
   </g>
   <g id="text_47">
    <!-- Retiming benefit measured under maximum optimisation pressure -->
    <g style="fill: #1a1a19" transform="translate(150.29 20.88) scale(0.13 -0.13)">
     <defs>
      <path id="DejaVuSans-Bold-52" d="M 2297 2597 
Q 2675 2597 2839 2737 
Q 3003 2878 3003 3200 
Q 3003 3519 2839 3656 
Q 2675 3794 2297 3794 
L 1791 3794 
L 1791 2597 
L 2297 2597 
z
M 1791 1766 
L 1791 0 
L 588 0 
L 588 4666 
L 2425 4666 
Q 3347 4666 3776 4356 
Q 4206 4047 4206 3378 
Q 4206 2916 3982 2619 
Q 3759 2322 3309 2181 
Q 3556 2125 3751 1926 
Q 3947 1728 4147 1325 
L 4800 0 
L 3519 0 
L 2950 1159 
Q 2778 1509 2601 1637 
Q 2425 1766 2131 1766 
L 1791 1766 
z
" transform="scale(0.015625)"/>
      <path id="DejaVuSans-Bold-65" d="M 4031 1759 
L 4031 1441 
L 1416 1441 
Q 1456 1047 1700 850 
Q 1944 653 2381 653 
Q 2734 653 3104 758 
Q 3475 863 3866 1075 
L 3866 213 
Q 3469 63 3072 -14 
Q 2675 -91 2278 -91 
Q 1328 -91 801 392 
Q 275 875 275 1747 
Q 275 2603 792 3093 
Q 1309 3584 2216 3584 
Q 3041 3584 3536 3087 
Q 4031 2591 4031 1759 
z
M 2881 2131 
Q 2881 2450 2695 2645 
Q 2509 2841 2209 2841 
Q 1884 2841 1681 2658 
Q 1478 2475 1428 2131 
L 2881 2131 
z
" transform="scale(0.015625)"/>
      <path id="DejaVuSans-Bold-74" d="M 1759 4494 
L 1759 3500 
L 2913 3500 
L 2913 2700 
L 1759 2700 
L 1759 1216 
Q 1759 972 1856 886 
Q 1953 800 2241 800 
L 2816 800 
L 2816 0 
L 1856 0 
Q 1194 0 917 276 
Q 641 553 641 1216 
L 641 2700 
L 84 2700 
L 84 3500 
L 641 3500 
L 641 4494 
L 1759 4494 
z
" transform="scale(0.015625)"/>
      <path id="DejaVuSans-Bold-69" d="M 538 3500 
L 1656 3500 
L 1656 0 
L 538 0 
L 538 3500 
z
M 538 4863 
L 1656 4863 
L 1656 3950 
L 538 3950 
L 538 4863 
z
" transform="scale(0.015625)"/>
      <path id="DejaVuSans-Bold-6d" d="M 3781 2919 
Q 3994 3244 4286 3414 
Q 4578 3584 4928 3584 
Q 5531 3584 5847 3212 
Q 6163 2841 6163 2131 
L 6163 0 
L 5038 0 
L 5038 1825 
Q 5041 1866 5042 1909 
Q 5044 1953 5044 2034 
Q 5044 2406 4934 2573 
Q 4825 2741 4581 2741 
Q 4263 2741 4089 2478 
Q 3916 2216 3909 1719 
L 3909 0 
L 2784 0 
L 2784 1825 
Q 2784 2406 2684 2573 
Q 2584 2741 2328 2741 
Q 2006 2741 1831 2477 
Q 1656 2213 1656 1722 
L 1656 0 
L 531 0 
L 531 3500 
L 1656 3500 
L 1656 2988 
Q 1863 3284 2130 3434 
Q 2397 3584 2719 3584 
Q 3081 3584 3359 3409 
Q 3638 3234 3781 2919 
z
" transform="scale(0.015625)"/>
      <path id="DejaVuSans-Bold-6e" d="M 4056 2131 
L 4056 0 
L 2931 0 
L 2931 347 
L 2931 1631 
Q 2931 2084 2911 2256 
Q 2891 2428 2841 2509 
Q 2775 2619 2662 2680 
Q 2550 2741 2406 2741 
Q 2056 2741 1856 2470 
Q 1656 2200 1656 1722 
L 1656 0 
L 538 0 
L 538 3500 
L 1656 3500 
L 1656 2988 
Q 1909 3294 2193 3439 
Q 2478 3584 2822 3584 
Q 3428 3584 3742 3212 
Q 4056 2841 4056 2131 
z
" transform="scale(0.015625)"/>
      <path id="DejaVuSans-Bold-67" d="M 2919 594 
Q 2688 288 2409 144 
Q 2131 0 1766 0 
Q 1125 0 706 504 
Q 288 1009 288 1791 
Q 288 2575 706 3076 
Q 1125 3578 1766 3578 
Q 2131 3578 2409 3434 
Q 2688 3291 2919 2981 
L 2919 3500 
L 4044 3500 
L 4044 353 
Q 4044 -491 3511 -936 
Q 2978 -1381 1966 -1381 
Q 1638 -1381 1331 -1331 
Q 1025 -1281 716 -1178 
L 716 -306 
Q 1009 -475 1290 -558 
Q 1572 -641 1856 -641 
Q 2406 -641 2662 -400 
Q 2919 -159 2919 353 
L 2919 594 
z
M 2181 2772 
Q 1834 2772 1640 2515 
Q 1447 2259 1447 1791 
Q 1447 1309 1634 1061 
Q 1822 813 2181 813 
Q 2531 813 2725 1069 
Q 2919 1325 2919 1791 
Q 2919 2259 2725 2515 
Q 2531 2772 2181 2772 
z
" transform="scale(0.015625)"/>
      <path id="DejaVuSans-Bold-20" transform="scale(0.015625)"/>
      <path id="DejaVuSans-Bold-62" d="M 2400 722 
Q 2759 722 2948 984 
Q 3138 1247 3138 1747 
Q 3138 2247 2948 2509 
Q 2759 2772 2400 2772 
Q 2041 2772 1848 2508 
Q 1656 2244 1656 1747 
Q 1656 1250 1848 986 
Q 2041 722 2400 722 
z
M 1656 2988 
Q 1888 3294 2169 3439 
Q 2450 3584 2816 3584 
Q 3463 3584 3878 3070 
Q 4294 2556 4294 1747 
Q 4294 938 3878 423 
Q 3463 -91 2816 -91 
Q 2450 -91 2169 54 
Q 1888 200 1656 506 
L 1656 0 
L 538 0 
L 538 4863 
L 1656 4863 
L 1656 2988 
z
" transform="scale(0.015625)"/>
      <path id="DejaVuSans-Bold-66" d="M 2841 4863 
L 2841 4128 
L 2222 4128 
Q 1984 4128 1890 4042 
Q 1797 3956 1797 3744 
L 1797 3500 
L 2753 3500 
L 2753 2700 
L 1797 2700 
L 1797 0 
L 678 0 
L 678 2700 
L 122 2700 
L 122 3500 
L 678 3500 
L 678 3744 
Q 678 4316 997 4589 
Q 1316 4863 1984 4863 
L 2841 4863 
z
" transform="scale(0.015625)"/>
      <path id="DejaVuSans-Bold-61" d="M 2106 1575 
Q 1756 1575 1579 1456 
Q 1403 1338 1403 1106 
Q 1403 894 1545 773 
Q 1688 653 1941 653 
Q 2256 653 2472 879 
Q 2688 1106 2688 1447 
L 2688 1575 
L 2106 1575 
z
M 3816 1997 
L 3816 0 
L 2688 0 
L 2688 519 
Q 2463 200 2181 54 
Q 1900 -91 1497 -91 
Q 953 -91 614 226 
Q 275 544 275 1050 
Q 275 1666 698 1953 
Q 1122 2241 2028 2241 
L 2688 2241 
L 2688 2328 
Q 2688 2594 2478 2717 
Q 2269 2841 1825 2841 
Q 1466 2841 1156 2769 
Q 847 2697 581 2553 
L 581 3406 
Q 941 3494 1303 3539 
Q 1666 3584 2028 3584 
Q 2975 3584 3395 3211 
Q 3816 2838 3816 1997 
z
" transform="scale(0.015625)"/>
      <path id="DejaVuSans-Bold-73" d="M 3272 3391 
L 3272 2541 
Q 2913 2691 2578 2766 
Q 2244 2841 1947 2841 
Q 1628 2841 1473 2761 
Q 1319 2681 1319 2516 
Q 1319 2381 1436 2309 
Q 1553 2238 1856 2203 
L 2053 2175 
Q 2913 2066 3209 1816 
Q 3506 1566 3506 1031 
Q 3506 472 3093 190 
Q 2681 -91 1863 -91 
Q 1516 -91 1145 -36 
Q 775 19 384 128 
L 384 978 
Q 719 816 1070 734 
Q 1422 653 1784 653 
Q 2113 653 2278 743 
Q 2444 834 2444 1013 
Q 2444 1163 2330 1236 
Q 2216 1309 1875 1350 
L 1678 1375 
Q 931 1469 631 1722 
Q 331 1975 331 2491 
Q 331 3047 712 3315 
Q 1094 3584 1881 3584 
Q 2191 3584 2531 3537 
Q 2872 3491 3272 3391 
z
" transform="scale(0.015625)"/>
      <path id="DejaVuSans-Bold-75" d="M 500 1363 
L 500 3500 
L 1625 3500 
L 1625 3150 
Q 1625 2866 1622 2436 
Q 1619 2006 1619 1863 
Q 1619 1441 1641 1255 
Q 1663 1069 1716 984 
Q 1784 875 1895 815 
Q 2006 756 2150 756 
Q 2500 756 2700 1025 
Q 2900 1294 2900 1772 
L 2900 3500 
L 4019 3500 
L 4019 0 
L 2900 0 
L 2900 506 
Q 2647 200 2364 54 
Q 2081 -91 1741 -91 
Q 1134 -91 817 281 
Q 500 653 500 1363 
z
" transform="scale(0.015625)"/>
      <path id="DejaVuSans-Bold-72" d="M 3138 2547 
Q 2991 2616 2845 2648 
Q 2700 2681 2553 2681 
Q 2122 2681 1889 2404 
Q 1656 2128 1656 1613 
L 1656 0 
L 538 0 
L 538 3500 
L 1656 3500 
L 1656 2925 
Q 1872 3269 2151 3426 
Q 2431 3584 2822 3584 
Q 2878 3584 2943 3579 
Q 3009 3575 3134 3559 
L 3138 2547 
z
" transform="scale(0.015625)"/>
      <path id="DejaVuSans-Bold-64" d="M 2919 2988 
L 2919 4863 
L 4044 4863 
L 4044 0 
L 2919 0 
L 2919 506 
Q 2688 197 2409 53 
Q 2131 -91 1766 -91 
Q 1119 -91 703 423 
Q 288 938 288 1747 
Q 288 2556 703 3070 
Q 1119 3584 1766 3584 
Q 2128 3584 2408 3439 
Q 2688 3294 2919 2988 
z
M 2181 722 
Q 2541 722 2730 984 
Q 2919 1247 2919 1747 
Q 2919 2247 2730 2509 
Q 2541 2772 2181 2772 
Q 1825 2772 1636 2509 
Q 1447 2247 1447 1747 
Q 1447 1247 1636 984 
Q 1825 722 2181 722 
z
" transform="scale(0.015625)"/>
      <path id="DejaVuSans-Bold-78" d="M 1422 1791 
L 159 3500 
L 1344 3500 
L 2059 2463 
L 2784 3500 
L 3969 3500 
L 2706 1797 
L 4031 0 
L 2847 0 
L 2059 1106 
L 1281 0 
L 97 0 
L 1422 1791 
z
" transform="scale(0.015625)"/>
      <path id="DejaVuSans-Bold-6f" d="M 2203 2784 
Q 1831 2784 1636 2517 
Q 1441 2250 1441 1747 
Q 1441 1244 1636 976 
Q 1831 709 2203 709 
Q 2569 709 2762 976 
Q 2956 1244 2956 1747 
Q 2956 2250 2762 2517 
Q 2569 2784 2203 2784 
z
M 2203 3584 
Q 3106 3584 3614 3096 
Q 4122 2609 4122 1747 
Q 4122 884 3614 396 
Q 3106 -91 2203 -91 
Q 1297 -91 786 396 
Q 275 884 275 1747 
Q 275 2609 786 3096 
Q 1297 3584 2203 3584 
z
" transform="scale(0.015625)"/>
      <path id="DejaVuSans-Bold-70" d="M 1656 506 
L 1656 -1331 
L 538 -1331 
L 538 3500 
L 1656 3500 
L 1656 2988 
Q 1888 3294 2169 3439 
Q 2450 3584 2816 3584 
Q 3463 3584 3878 3070 
Q 4294 2556 4294 1747 
Q 4294 938 3878 423 
Q 3463 -91 2816 -91 
Q 2450 -91 2169 54 
Q 1888 200 1656 506 
z
M 2400 2772 
Q 2041 2772 1848 2508 
Q 1656 2244 1656 1747 
Q 1656 1250 1848 986 
Q 2041 722 2400 722 
Q 2759 722 2948 984 
Q 3138 1247 3138 1747 
Q 3138 2247 2948 2509 
Q 2759 2772 2400 2772 
z
" transform="scale(0.015625)"/>
     </defs>
     <use xlink:href="#DejaVuSans-Bold-52"/>
     <use xlink:href="#DejaVuSans-Bold-65" x="77.001953"/>
     <use xlink:href="#DejaVuSans-Bold-74" x="144.824219"/>
     <use xlink:href="#DejaVuSans-Bold-69" x="192.626953"/>
     <use xlink:href="#DejaVuSans-Bold-6d" x="226.904297"/>
     <use xlink:href="#DejaVuSans-Bold-69" x="331.103516"/>
     <use xlink:href="#DejaVuSans-Bold-6e" x="365.380859"/>
     <use xlink:href="#DejaVuSans-Bold-67" x="436.572266"/>
     <use xlink:href="#DejaVuSans-Bold-20" x="508.154297"/>
     <use xlink:href="#DejaVuSans-Bold-62" x="542.96875"/>
     <use xlink:href="#DejaVuSans-Bold-65" x="614.550781"/>
     <use xlink:href="#DejaVuSans-Bold-6e" x="682.373047"/>
     <use xlink:href="#DejaVuSans-Bold-65" x="753.564453"/>
     <use xlink:href="#DejaVuSans-Bold-66" x="821.386719"/>
     <use xlink:href="#DejaVuSans-Bold-69" x="864.892578"/>
     <use xlink:href="#DejaVuSans-Bold-74" x="899.169922"/>
     <use xlink:href="#DejaVuSans-Bold-20" x="946.972656"/>
     <use xlink:href="#DejaVuSans-Bold-6d" x="981.787109"/>
     <use xlink:href="#DejaVuSans-Bold-65" x="1085.986328"/>
     <use xlink:href="#DejaVuSans-Bold-61" x="1153.808594"/>
     <use xlink:href="#DejaVuSans-Bold-73" x="1221.289062"/>
     <use xlink:href="#DejaVuSans-Bold-75" x="1280.810547"/>
     <use xlink:href="#DejaVuSans-Bold-72" x="1352.001953"/>
     <use xlink:href="#DejaVuSans-Bold-65" x="1401.318359"/>
     <use xlink:href="#DejaVuSans-Bold-64" x="1469.140625"/>
     <use xlink:href="#DejaVuSans-Bold-20" x="1540.722656"/>
     <use xlink:href="#DejaVuSans-Bold-75" x="1575.537109"/>
     <use xlink:href="#DejaVuSans-Bold-6e" x="1646.728516"/>
     <use xlink:href="#DejaVuSans-Bold-64" x="1717.919922"/>
     <use xlink:href="#DejaVuSans-Bold-65" x="1789.501953"/>
     <use xlink:href="#DejaVuSans-Bold-72" x="1857.324219"/>
     <use xlink:href="#DejaVuSans-Bold-20" x="1906.640625"/>
     <use xlink:href="#DejaVuSans-Bold-6d" x="1941.455078"/>
     <use xlink:href="#DejaVuSans-Bold-61" x="2045.654297"/>
     <use xlink:href="#DejaVuSans-Bold-78" x="2113.134766"/>
     <use xlink:href="#DejaVuSans-Bold-69" x="2177.636719"/>
     <use xlink:href="#DejaVuSans-Bold-6d" x="2211.914062"/>
     <use xlink:href="#DejaVuSans-Bold-75" x="2316.113281"/>
     <use xlink:href="#DejaVuSans-Bold-6d" x="2387.304688"/>
     <use xlink:href="#DejaVuSans-Bold-20" x="2491.503906"/>
     <use xlink:href="#DejaVuSans-Bold-6f" x="2526.318359"/>
     <use xlink:href="#DejaVuSans-Bold-70" x="2595.019531"/>
     <use xlink:href="#DejaVuSans-Bold-74" x="2666.601562"/>
     <use xlink:href="#DejaVuSans-Bold-69" x="2714.404297"/>
     <use xlink:href="#DejaVuSans-Bold-6d" x="2748.681641"/>
     <use xlink:href="#DejaVuSans-Bold-69" x="2852.880859"/>
     <use xlink:href="#DejaVuSans-Bold-73" x="2887.158203"/>
     <use xlink:href="#DejaVuSans-Bold-61" x="2946.679688"/>
     <use xlink:href="#DejaVuSans-Bold-74" x="3014.160156"/>
     <use xlink:href="#DejaVuSans-Bold-69" x="3061.962891"/>
     <use xlink:href="#DejaVuSans-Bold-6f" x="3096.240234"/>
     <use xlink:href="#DejaVuSans-Bold-6e" x="3164.941406"/>
     <use xlink:href="#DejaVuSans-Bold-20" x="3236.132812"/>
     <use xlink:href="#DejaVuSans-Bold-70" x="3270.947266"/>
     <use xlink:href="#DejaVuSans-Bold-72" x="3342.529297"/>
     <use xlink:href="#DejaVuSans-Bold-65" x="3391.845703"/>
     <use xlink:href="#DejaVuSans-Bold-73" x="3459.667969"/>
     <use xlink:href="#DejaVuSans-Bold-73" x="3519.189453"/>
     <use xlink:href="#DejaVuSans-Bold-75" x="3578.710938"/>
     <use xlink:href="#DejaVuSans-Bold-72" x="3649.902344"/>
     <use xlink:href="#DejaVuSans-Bold-65" x="3699.21875"/>
    </g>
   </g>
   <g id="legend_1">
    <g id="line2d_79">
     <path d="M 611.954844 501.127969 
L 620.954844 501.127969 
L 629.954844 501.127969 
" style="fill: none; stroke: #2a78d6; stroke-width: 2.4; stroke-linecap: square"/>
     <defs>
      <path id="mc574f4fe90" d="M 0 4 
C 1.060812 4 2.078319 3.578535 2.828427 2.828427 
C 3.578535 2.078319 4 1.060812 4 0 
C 4 -1.060812 3.578535 -2.078319 2.828427 -2.828427 
C 2.078319 -3.578535 1.060812 -4 0 -4 
C -1.060812 -4 -2.078319 -3.578535 -2.828427 -2.828427 
C -3.578535 -2.078319 -4 -1.060812 -4 0 
C -4 1.060812 -3.578535 2.078319 -2.828427 2.828427 
C -2.078319 3.578535 -1.060812 4 0 4 
z
" style="stroke: #2a78d6"/>
     </defs>
     <g>
      <use xlink:href="#mc574f4fe90" x="620.954844" y="501.127969" style="fill: #2a78d6; stroke: #2a78d6"/>
     </g>
    </g>
    <g id="text_48">
     <!-- Tool-automatic retiming -->
     <g transform="translate(637.154844 504.277969) scale(0.09 -0.09)">
      <use xlink:href="#DejaVuSans-54"/>
      <use xlink:href="#DejaVuSans-6f" x="44.083984"/>
      <use xlink:href="#DejaVuSans-6f" x="105.265625"/>
      <use xlink:href="#DejaVuSans-6c" x="166.447266"/>
      <use xlink:href="#DejaVuSans-2d" x="194.230469"/>
      <use xlink:href="#DejaVuSans-61" x="230.314453"/>
      <use xlink:href="#DejaVuSans-75" x="291.59375"/>
      <use xlink:href="#DejaVuSans-74" x="354.972656"/>
      <use xlink:href="#DejaVuSans-6f" x="394.181641"/>
      <use xlink:href="#DejaVuSans-6d" x="455.363281"/>
      <use xlink:href="#DejaVuSans-61" x="552.775391"/>
      <use xlink:href="#DejaVuSans-74" x="614.054688"/>
      <use xlink:href="#DejaVuSans-69" x="653.263672"/>
      <use xlink:href="#DejaVuSans-63" x="681.046875"/>
      <use xlink:href="#DejaVuSans-20" x="736.027344"/>
      <use xlink:href="#DejaVuSans-72" x="767.814453"/>
      <use xlink:href="#DejaVuSans-65" x="806.677734"/>
      <use xlink:href="#DejaVuSans-74" x="868.201172"/>
      <use xlink:href="#DejaVuSans-69" x="907.410156"/>
      <use xlink:href="#DejaVuSans-6d" x="935.193359"/>
      <use xlink:href="#DejaVuSans-69" x="1032.605469"/>
      <use xlink:href="#DejaVuSans-6e" x="1060.388672"/>
      <use xlink:href="#DejaVuSans-67" x="1123.767578"/>
     </g>
    </g>
    <g id="line2d_80">
     <path d="M 611.954844 514.338281 
L 620.954844 514.338281 
L 629.954844 514.338281 
" style="fill: none; stroke: #eb6834; stroke-width: 2.4; stroke-linecap: square"/>
     <defs>
      <path id="m8d6432ff18" d="M -4 4 
L 4 4 
L 4 -4 
L -4 -4 
z
" style="stroke: #eb6834; stroke-linejoin: miter"/>
     </defs>
     <g>
      <use xlink:href="#m8d6432ff18" x="620.954844" y="514.338281" style="fill: #eb6834; stroke: #eb6834; stroke-linejoin: miter"/>
     </g>
    </g>
    <g id="text_49">
     <!-- Manual (hand-retimed RTL) -->
     <g transform="translate(637.154844 517.488281) scale(0.09 -0.09)">
      <defs>
       <path id="DejaVuSans-4d" d="M 628 4666 
L 1569 4666 
L 2759 1491 
L 3956 4666 
L 4897 4666 
L 4897 0 
L 4281 0 
L 4281 4097 
L 3078 897 
L 2444 897 
L 1241 4097 
L 1241 0 
L 628 0 
L 628 4666 
z
" transform="scale(0.015625)"/>
       <path id="DejaVuSans-28" d="M 1984 4856 
Q 1566 4138 1362 3434 
Q 1159 2731 1159 2009 
Q 1159 1288 1364 580 
Q 1569 -128 1984 -844 
L 1484 -844 
Q 1016 -109 783 600 
Q 550 1309 550 2009 
Q 550 2706 781 3412 
Q 1013 4119 1484 4856 
L 1984 4856 
z
" transform="scale(0.015625)"/>
       <path id="DejaVuSans-52" d="M 2841 2188 
Q 3044 2119 3236 1894 
Q 3428 1669 3622 1275 
L 4263 0 
L 3584 0 
L 2988 1197 
Q 2756 1666 2539 1819 
Q 2322 1972 1947 1972 
L 1259 1972 
L 1259 0 
L 628 0 
L 628 4666 
L 2053 4666 
Q 2853 4666 3247 4331 
Q 3641 3997 3641 3322 
Q 3641 2881 3436 2590 
Q 3231 2300 2841 2188 
z
M 1259 4147 
L 1259 2491 
L 2053 2491 
Q 2509 2491 2742 2702 
Q 2975 2913 2975 3322 
Q 2975 3731 2742 3939 
Q 2509 4147 2053 4147 
L 1259 4147 
z
" transform="scale(0.015625)"/>
       <path id="DejaVuSans-4c" d="M 628 4666 
L 1259 4666 
L 1259 531 
L 3531 531 
L 3531 0 
L 628 0 
L 628 4666 
z
" transform="scale(0.015625)"/>
       <path id="DejaVuSans-29" d="M 513 4856 
L 1013 4856 
Q 1481 4119 1714 3412 
Q 1947 2706 1947 2009 
Q 1947 1309 1714 600 
Q 1481 -109 1013 -844 
L 513 -844 
Q 928 -128 1133 580 
Q 1338 1288 1338 2009 
Q 1338 2731 1133 3434 
Q 928 4138 513 4856 
z
" transform="scale(0.015625)"/>
      </defs>
      <use xlink:href="#DejaVuSans-4d"/>
      <use xlink:href="#DejaVuSans-61" x="86.279297"/>
      <use xlink:href="#DejaVuSans-6e" x="147.558594"/>
      <use xlink:href="#DejaVuSans-75" x="210.9375"/>
      <use xlink:href="#DejaVuSans-61" x="274.316406"/>
      <use xlink:href="#DejaVuSans-6c" x="335.595703"/>
      <use xlink:href="#DejaVuSans-20" x="363.378906"/>
      <use xlink:href="#DejaVuSans-28" x="395.166016"/>
      <use xlink:href="#DejaVuSans-68" x="434.179688"/>
      <use xlink:href="#DejaVuSans-61" x="497.558594"/>
      <use xlink:href="#DejaVuSans-6e" x="558.837891"/>
      <use xlink:href="#DejaVuSans-64" x="622.216797"/>
      <use xlink:href="#DejaVuSans-2d" x="685.693359"/>
      <use xlink:href="#DejaVuSans-72" x="721.777344"/>
      <use xlink:href="#DejaVuSans-65" x="760.640625"/>
      <use xlink:href="#DejaVuSans-74" x="822.164062"/>
      <use xlink:href="#DejaVuSans-69" x="861.373047"/>
      <use xlink:href="#DejaVuSans-6d" x="889.15625"/>
      <use xlink:href="#DejaVuSans-65" x="986.568359"/>
      <use xlink:href="#DejaVuSans-64" x="1048.091797"/>
      <use xlink:href="#DejaVuSans-20" x="1111.568359"/>
      <use xlink:href="#DejaVuSans-52" x="1143.355469"/>
      <use xlink:href="#DejaVuSans-54" x="1205.587891"/>
      <use xlink:href="#DejaVuSans-4c" x="1266.671875"/>
      <use xlink:href="#DejaVuSans-29" x="1322.384766"/>
     </g>
    </g>
   </g>
  </g>
 </g>
 <defs>
  <clipPath id="p9eaf97279f">
   <rect x="150.29" y="34.88" width="617.49" height="492.58"/>
  </clipPath>
 </defs>
</svg>
